<?xml version="1.0" standalone="no"?>
<!DOCTYPE svg PUBLIC "-//W3C//DTD SVG 20010904//EN"
 "http://www.w3.org/TR/2001/REC-SVG-20010904/DTD/svg10.dtd">
<svg version="1.0" xmlns="http://www.w3.org/2000/svg"
 width="1930.000000pt" height="1930.000000pt" viewBox="0 0 1930.000000 1930.000000"
 preserveAspectRatio="xMidYMid meet">

<g transform="translate(0.000000,1930.000000) scale(0.100000,-0.100000)"
fill="#000000" stroke="none">
<path d="M0 9650 l0 -9650 9650 0 9650 0 0 9650 0 9650 -9650 0 -9650 0 0
-9650z m9208 9633 c-26 -2 -71 -2 -100 0 -29 2 -8 3 47 3 55 0 79 -1 53 -3z
m1117 -3 c1864 -132 3624 -787 5110 -1902 743 -558 1382 -1196 1938 -1936 734
-978 1269 -2071 1591 -3252 58 -214 118 -469 113 -483 -2 -7 -7 6 -11 28 -14
75 -98 409 -142 560 -402 1400 -1088 2649 -2062 3755 -175 199 -613 637 -812
812 -865 762 -1818 1348 -2867 1761 -825 326 -1663 529 -2563 622 -124 12
-228 20 -525 38 -39 3 -35 4 20 5 39 1 133 -3 210 -8z m-1360 -10 c-49 -4
-135 -10 -190 -13 l-100 -6 115 13 c63 7 149 13 190 13 l75 0 -90 -7z m-312
-27 c-13 -2 -33 -2 -45 0 -13 2 -3 4 22 4 25 0 35 -2 23 -4z m1130 0 c-67 -2
-179 -2 -250 0 -70 1 -15 3 122 3 138 0 195 -2 128 -3z m-1338 -24 c-1482
-194 -2807 -679 -4055 -1484 -863 -557 -1713 -1340 -2361 -2175 -447 -576
-852 -1242 -1144 -1883 -32 -70 -60 -125 -62 -123 -10 10 216 473 354 724 665
1214 1578 2267 2688 3100 1149 862 2472 1455 3876 1736 302 60 716 124 804
124 22 0 -23 -9 -100 -19z m888 14 c-35 -2 -91 -2 -125 0 -35 2 -7 3 62 3 69
0 97 -1 63 -3z m760 0 c-35 -2 -91 -2 -125 0 -35 2 -7 3 62 3 69 0 97 -1 63
-3z m-985 -10 c-21 -2 -57 -2 -80 0 -24 2 -7 4 37 4 44 0 63 -2 43 -4z m1170
0 c-21 -2 -57 -2 -80 0 -24 2 -7 4 37 4 44 0 63 -2 43 -4z m-1325 -10 c-18 -2
-48 -2 -65 0 -18 2 -4 4 32 4 36 0 50 -2 33 -4z m1790 -28 c2443 -276 4685
-1484 6266 -3375 1037 -1240 1738 -2702 2050 -4275 28 -138 52 -275 55 -305
l5 -55 -9 50 c-6 28 -30 154 -55 281 -294 1515 -965 2950 -1948 4167 -407 504
-930 1027 -1434 1434 -905 731 -1897 1274 -3002 1643 -703 235 -1391 377
-2206 455 -136 13 -140 14 -42 9 60 -2 204 -16 320 -29z m-2053 5 c-197 -21
-314 -31 -280 -23 50 11 336 41 390 41 30 0 -19 -8 -110 -18z m-322 -37 c-10
-2 -26 -2 -35 0 -10 3 -2 5 17 5 19 0 27 -2 18 -5z m-203 -29 c-943 -150
-1856 -437 -2702 -849 -784 -382 -1469 -838 -2151 -1433 -215 -187 -667 -639
-854 -854 -669 -767 -1195 -1590 -1588 -2485 -30 -68 -55 -121 -57 -119 -12
12 267 597 406 851 670 1222 1572 2264 2676 3093 1021 766 2164 1314 3395
1626 331 84 897 195 990 194 19 0 -32 -11 -115 -24z m1568 -41 c-46 -2 -120
-2 -165 0 -46 1 -9 3 82 3 91 0 128 -2 83 -3z m-490 -10 c-13 -2 -33 -2 -45 0
-13 2 -3 4 22 4 25 0 35 -2 23 -4z m860 0 c-13 -2 -33 -2 -45 0 -13 2 -3 4 22
4 25 0 35 -2 23 -4z m-1050 -10 c-7 -2 -21 -2 -30 0 -10 3 -4 5 12 5 17 0 24
-2 18 -5z m1230 0 c-7 -2 -21 -2 -30 0 -10 3 -4 5 12 5 17 0 24 -2 18 -5z
m-1370 -10 c-7 -2 -21 -2 -30 0 -10 3 -4 5 12 5 17 0 24 -2 18 -5z m1510 0
c-7 -2 -21 -2 -30 0 -10 3 -4 5 12 5 17 0 24 -2 18 -5z m-1630 -10 c-7 -2 -19
-2 -25 0 -7 3 -2 5 12 5 14 0 19 -2 13 -5z m1740 0 c-7 -2 -19 -2 -25 0 -7 3
-2 5 12 5 14 0 19 -2 13 -5z m-1846 -9 c-3 -3 -12 -4 -19 -1 -8 3 -5 6 6 6 11
1 17 -2 13 -5z m1950 0 c-3 -3 -12 -4 -19 -1 -8 3 -5 6 6 6 11 1 17 -2 13 -5z
m-2044 -11 c-7 -2 -19 -2 -25 0 -7 3 -2 5 12 5 14 0 19 -2 13 -5z m2140 0 c-7
-2 -19 -2 -25 0 -7 3 -2 5 12 5 14 0 19 -2 13 -5z m-2226 -9 c-3 -3 -12 -4
-19 -1 -8 3 -5 6 6 6 11 1 17 -2 13 -5z m2310 0 c-3 -3 -12 -4 -19 -1 -8 3 -5
6 6 6 11 1 17 -2 13 -5z m-2390 -10 c-3 -3 -12 -4 -19 -1 -8 3 -5 6 6 6 11 1
17 -2 13 -5z m2470 0 c-3 -3 -12 -4 -19 -1 -8 3 -5 6 6 6 11 1 17 -2 13 -5z
m-2540 -10 c-3 -3 -12 -4 -19 -1 -8 3 -5 6 6 6 11 1 17 -2 13 -5z m2610 0 c-3
-3 -12 -4 -19 -1 -8 3 -5 6 6 6 11 1 17 -2 13 -5z m-2680 -10 c-3 -3 -12 -4
-19 -1 -8 3 -5 6 6 6 11 1 17 -2 13 -5z m2750 0 c-3 -3 -12 -4 -19 -1 -8 3 -5
6 6 6 11 1 17 -2 13 -5z m-2820 -10 c-3 -3 -12 -4 -19 -1 -8 3 -5 6 6 6 11 1
17 -2 13 -5z m2890 0 c-3 -3 -12 -4 -19 -1 -8 3 -5 6 6 6 11 1 17 -2 13 -5z
m-2950 -10 c-3 -3 -12 -4 -19 -1 -8 3 -5 6 6 6 11 1 17 -2 13 -5z m3010 0 c-3
-3 -12 -4 -19 -1 -8 3 -5 6 6 6 11 1 17 -2 13 -5z m-3190 -30 c-3 -3 -12 -4
-19 -1 -8 3 -5 6 6 6 11 1 17 -2 13 -5z m3370 0 c-3 -3 -12 -4 -19 -1 -8 3 -5
6 6 6 11 1 17 -2 13 -5z m-1849 -171 c-21 -2 -57 -2 -80 0 -24 2 -7 4 37 4 44
0 63 -2 43 -4z m390 0 c-21 -2 -57 -2 -80 0 -24 2 -7 4 37 4 44 0 63 -2 43 -4z
m-690 -10 c-10 -2 -28 -2 -40 0 -13 2 -5 4 17 4 22 1 32 -1 23 -4z m950 0
c-10 -2 -28 -2 -40 0 -13 2 -5 4 17 4 22 1 32 -1 23 -4z m-1120 -10 c-10 -2
-26 -2 -35 0 -10 3 -2 5 17 5 19 0 27 -2 18 -5z m1280 0 c-10 -2 -26 -2 -35 0
-10 3 -2 5 17 5 19 0 27 -2 18 -5z m-1415 -10 c-7 -2 -19 -2 -25 0 -7 3 -2 5
12 5 14 0 19 -2 13 -5z m1540 0 c-7 -2 -19 -2 -25 0 -7 3 -2 5 12 5 14 0 19
-2 13 -5z m-1650 -10 c-7 -2 -19 -2 -25 0 -7 3 -2 5 12 5 14 0 19 -2 13 -5z
m1760 0 c-7 -2 -19 -2 -25 0 -7 3 -2 5 12 5 14 0 19 -2 13 -5z m-1860 -10 c-7
-2 -19 -2 -25 0 -7 3 -2 5 12 5 14 0 19 -2 13 -5z m1960 0 c-7 -2 -19 -2 -25
0 -7 3 -2 5 12 5 14 0 19 -2 13 -5z m-2050 -10 c-7 -2 -19 -2 -25 0 -7 3 -2 5
12 5 14 0 19 -2 13 -5z m2140 0 c-7 -2 -19 -2 -25 0 -7 3 -2 5 12 5 14 0 19
-2 13 -5z m-2226 -9 c-3 -3 -12 -4 -19 -1 -8 3 -5 6 6 6 11 1 17 -2 13 -5z
m2310 0 c-3 -3 -12 -4 -19 -1 -8 3 -5 6 6 6 11 1 17 -2 13 -5z m-2380 -10 c-3
-3 -12 -4 -19 -1 -8 3 -5 6 6 6 11 1 17 -2 13 -5z m2450 0 c-3 -3 -12 -4 -19
-1 -8 3 -5 6 6 6 11 1 17 -2 13 -5z m-2660 -30 c-3 -3 -12 -4 -19 -1 -8 3 -5
6 6 6 11 1 17 -2 13 -5z m2870 0 c-3 -3 -12 -4 -19 -1 -8 3 -5 6 6 6 11 1 17
-2 13 -5z m-2930 -10 c-3 -3 -12 -4 -19 -1 -8 3 -5 6 6 6 11 1 17 -2 13 -5z
m2990 0 c-3 -3 -12 -4 -19 -1 -8 3 -5 6 6 6 11 1 17 -2 13 -5z m-3050 -10 c-3
-3 -12 -4 -19 -1 -8 3 -5 6 6 6 11 1 17 -2 13 -5z m3110 0 c-3 -3 -12 -4 -19
-1 -8 3 -5 6 6 6 11 1 17 -2 13 -5z m-3220 -20 c-3 -3 -12 -4 -19 -1 -8 3 -5
6 6 6 11 1 17 -2 13 -5z m3330 0 c-3 -3 -12 -4 -19 -1 -8 3 -5 6 6 6 11 1 17
-2 13 -5z m-1979 -151 c-16 -2 -40 -2 -55 0 -16 2 -3 4 27 4 30 0 43 -2 28 -4z
m660 0 c-16 -2 -40 -2 -55 0 -16 2 -3 4 27 4 30 0 43 -2 28 -4z m-880 -10
c-10 -2 -26 -2 -35 0 -10 3 -2 5 17 5 19 0 27 -2 18 -5z m1080 0 c-10 -2 -26
-2 -35 0 -10 3 -2 5 17 5 19 0 27 -2 18 -5z m-1225 -10 c-7 -2 -21 -2 -30 0
-10 3 -4 5 12 5 17 0 24 -2 18 -5z m1370 0 c-7 -2 -21 -2 -30 0 -10 3 -4 5 12
5 17 0 24 -2 18 -5z m-1500 -10 c-7 -2 -19 -2 -25 0 -7 3 -2 5 12 5 14 0 19
-2 13 -5z m1620 0 c-7 -2 -19 -2 -25 0 -7 3 -2 5 12 5 14 0 19 -2 13 -5z
m-1720 -10 c-7 -2 -19 -2 -25 0 -7 3 -2 5 12 5 14 0 19 -2 13 -5z m1820 0 c-7
-2 -19 -2 -25 0 -7 3 -2 5 12 5 14 0 19 -2 13 -5z m-1916 -9 c-3 -3 -12 -4
-19 -1 -8 3 -5 6 6 6 11 1 17 -2 13 -5z m2010 0 c-3 -3 -12 -4 -19 -1 -8 3 -5
6 6 6 11 1 17 -2 13 -5z m-2090 -10 c-3 -3 -12 -4 -19 -1 -8 3 -5 6 6 6 11 1
17 -2 13 -5z m2170 0 c-3 -3 -12 -4 -19 -1 -8 3 -5 6 6 6 11 1 17 -2 13 -5z
m-2250 -10 c-3 -3 -12 -4 -19 -1 -8 3 -5 6 6 6 11 1 17 -2 13 -5z m2330 0 c-3
-3 -12 -4 -19 -1 -8 3 -5 6 6 6 11 1 17 -2 13 -5z m-2540 -30 c-3 -3 -12 -4
-19 -1 -8 3 -5 6 6 6 11 1 17 -2 13 -5z m2750 0 c-3 -3 -12 -4 -19 -1 -8 3 -5
6 6 6 11 1 17 -2 13 -5z m-2930 -30 c-3 -3 -12 -4 -19 -1 -8 3 -5 6 6 6 11 1
17 -2 13 -5z m3110 0 c-3 -3 -12 -4 -19 -1 -8 3 -5 6 6 6 11 1 17 -2 13 -5z
m-3270 -30 c-3 -3 -12 -4 -19 -1 -8 3 -5 6 6 6 11 1 17 -2 13 -5z m3430 0 c-3
-3 -12 -4 -19 -1 -8 3 -5 6 6 6 11 1 17 -2 13 -5z m-3480 -10 c-3 -3 -12 -4
-19 -1 -8 3 -5 6 6 6 11 1 17 -2 13 -5z m3530 0 c-3 -3 -12 -4 -19 -1 -8 3 -5
6 6 6 11 1 17 -2 13 -5z m-5877 -149 c-14 -8 -29 -14 -35 -14 -5 0 1 6 15 14
14 8 30 14 35 14 6 0 -1 -6 -15 -14z m8220 0 c14 -8 21 -14 15 -14 -5 0 -21 6
-35 14 -14 8 -20 14 -15 14 6 0 21 -6 35 -14z m-3784 -30 c110 -19 213 -48
301 -83 l68 -27 6 -60 c8 -67 11 -215 5 -215 -2 0 -41 18 -87 39 -249 117
-492 152 -702 102 -331 -79 -544 -363 -524 -701 18 -313 239 -566 547 -626
214 -42 479 15 707 151 l88 52 8 -136 c8 -158 18 -141 -120 -204 -310 -140
-656 -154 -936 -37 -160 67 -322 200 -413 340 -108 167 -148 306 -147 510 0
161 19 246 88 387 130 266 382 451 692 507 106 19 310 20 419 1z m-4626 -60
c0 -2 -10 -9 -22 -15 -22 -11 -22 -10 -4 4 21 17 26 19 26 11z m8620 -21 c0
-2 -9 0 -20 6 -11 6 -20 13 -20 16 0 2 9 0 20 -6 11 -6 20 -13 20 -16z m-2361
-144 c57 -16 106 -31 108 -34 2 -2 -89 -338 -202 -746 -114 -408 -203 -745
-199 -749 5 -5 185 -57 399 -116 215 -59 394 -111 398 -115 11 -9 -47 -215
-59 -214 -5 1 -242 66 -526 145 -322 89 -518 149 -518 156 0 7 101 374 224
815 123 442 229 822 235 846 7 23 17 42 24 42 7 0 59 -13 116 -30z m-6000 -64
c-10 -9 -69 -36 -69 -32 0 7 52 35 64 36 5 0 7 -2 5 -4z m8101 -11 c17 -9 30
-18 30 -21 0 -4 -59 23 -69 32 -10 9 13 3 39 -11z m-5900 -790 c358 -393 651
-718 650 -722 0 -7 -213 -83 -232 -83 -4 0 -93 95 -199 210 -163 180 -194 210
-213 204 -108 -34 -688 -233 -693 -238 -4 -4 -17 -133 -30 -288 -12 -155 -24
-282 -25 -283 -12 -10 -231 -76 -235 -71 -7 7 144 1870 155 1905 6 19 23 30
87 52 44 15 81 28 82 28 1 1 295 -321 653 -714z m-2570 610 c0 -2 -10 -9 -22
-15 -22 -11 -22 -10 -4 4 21 17 26 19 26 11z m8840 -21 c0 -2 -9 0 -20 6 -11
6 -20 13 -20 16 0 2 9 0 20 -6 11 -6 20 -13 20 -16z m-8311 -38 c-10 -9 -149
-76 -149 -71 0 6 131 74 144 75 5 0 7 -2 5 -4z m7821 -31 c39 -19 70 -38 70
-40 0 -5 -139 62 -149 71 -13 12 18 0 79 -31z m-8120 -120 c0 -2 -10 -9 -22
-15 -22 -11 -22 -10 -4 4 21 17 26 19 26 11z m8380 -21 c0 -2 -9 0 -20 6 -11
6 -20 13 -20 16 0 2 9 0 20 -6 11 -6 20 -13 20 -16z m-9570 12 c0 -2 -8 -10
-17 -17 -16 -13 -17 -12 -4 4 13 16 21 21 21 13z m10741 -13 c13 -16 12 -17
-3 -4 -17 13 -22 21 -14 21 2 0 10 -8 17 -17z m-10841 -57 c0 -2 -8 -10 -17
-17 -16 -13 -17 -12 -4 4 13 16 21 21 21 13z m10941 -13 c13 -16 12 -17 -3 -4
-17 13 -22 21 -14 21 2 0 10 -8 17 -17z m-9831 -8 c0 -2 -10 -9 -22 -15 -22
-11 -22 -10 -4 4 21 17 26 19 26 11z m8740 -21 c0 -2 -9 0 -20 6 -11 6 -20 13
-20 16 0 2 9 0 20 -6 11 -6 20 -13 20 -16z m-9960 -38 c0 -2 -8 -10 -17 -17
-16 -13 -17 -12 -4 4 13 16 21 21 21 13z m11161 -13 c13 -16 12 -17 -3 -4 -17
13 -22 21 -14 21 2 0 10 -8 17 -17z m-11201 -17 c0 -2 -8 -10 -17 -17 -16 -13
-17 -12 -4 4 13 16 21 21 21 13z m11241 -13 c13 -16 12 -17 -3 -4 -17 13 -22
21 -14 21 2 0 10 -8 17 -17z m-11281 -17 c0 -2 -8 -10 -17 -17 -16 -13 -17
-12 -4 4 13 16 21 21 21 13z m11321 -13 c13 -16 12 -17 -3 -4 -17 13 -22 21
-14 21 2 0 10 -8 17 -17z m-11361 -17 c0 -2 -8 -10 -17 -17 -16 -13 -17 -12
-4 4 13 16 21 21 21 13z m11401 -13 c13 -16 12 -17 -3 -4 -17 13 -22 21 -14
21 2 0 10 -8 17 -17z m-11441 -17 c0 -2 -8 -10 -17 -17 -16 -13 -17 -12 -4 4
13 16 21 21 21 13z m11481 -13 c13 -16 12 -17 -3 -4 -17 13 -22 21 -14 21 2 0
10 -8 17 -17z m-11531 -27 c0 -2 -8 -10 -17 -17 -16 -13 -17 -12 -4 4 13 16
21 21 21 13z m11581 -13 c13 -16 12 -17 -3 -4 -10 7 -18 15 -18 17 0 8 8 3 21
-13z m-11621 -17 c0 -2 -8 -10 -17 -17 -16 -13 -17 -12 -4 4 13 16 21 21 21
13z m530 0 c0 -2 -8 -10 -17 -17 -16 -13 -17 -12 -4 4 13 16 21 21 21 13z
m10601 -13 c13 -16 12 -17 -3 -4 -17 13 -22 21 -14 21 2 0 10 -8 17 -17z m530
0 c13 -16 12 -17 -3 -4 -17 13 -22 21 -14 21 2 0 10 -8 17 -17z m-11711 -27
c0 -2 -8 -10 -17 -17 -16 -13 -17 -12 -4 4 13 16 21 21 21 13z m11761 -13 c13
-16 12 -17 -3 -4 -17 13 -22 21 -14 21 2 0 10 -8 17 -17z m-11811 -26 c0 -2
-10 -12 -22 -23 l-23 -19 19 23 c18 21 26 27 26 19z m520 -1 c0 -2 -8 -10 -17
-17 -16 -13 -17 -12 -4 4 13 16 21 21 21 13z m10821 -13 c13 -16 12 -17 -3 -4
-17 13 -22 21 -14 21 2 0 10 -8 17 -17z m524 -3 c10 -11 16 -20 13 -20 -3 0
-13 9 -23 20 -10 11 -16 20 -13 20 3 0 13 -9 23 -20z m-1715 -20 c116 -28 286
-113 385 -193 217 -175 340 -415 352 -689 7 -140 -7 -239 -48 -354 -99 -271
-314 -474 -596 -561 -81 -25 -101 -27 -263 -27 -162 0 -182 2 -263 27 -343
106 -592 362 -683 702 -14 54 -18 105 -18 225 0 140 3 164 28 245 107 351 382
586 752 645 85 13 255 4 354 -20z m-9670 6 c0 -2 -8 -10 -17 -17 -16 -13 -17
-12 -4 4 13 16 21 21 21 13z m10901 -13 c13 -16 12 -17 -3 -4 -17 13 -22 21
-14 21 2 0 10 -8 17 -17z m-11431 4 c0 -2 -10 -12 -22 -23 l-23 -19 19 23 c18
21 26 27 26 19z m11965 -17 c10 -11 16 -20 13 -20 -3 0 -13 9 -23 20 -10 11
-16 20 -13 20 3 0 13 -9 23 -20z m-11475 -4 c0 -2 -8 -10 -17 -17 -16 -13 -17
-12 -4 4 13 16 21 21 21 13z m10981 -13 c13 -16 12 -17 -3 -4 -17 13 -22 21
-14 21 2 0 10 -8 17 -17z m-11531 -16 c0 -2 -10 -12 -22 -23 l-23 -19 19 23
c18 21 26 27 26 19z m510 -1 c0 -2 -8 -10 -17 -17 -16 -13 -17 -12 -4 4 13 16
21 21 21 13z m11061 -13 c13 -16 12 -17 -3 -4 -17 13 -22 21 -14 21 2 0 10 -8
17 -17z m514 -3 c10 -11 16 -20 13 -20 -3 0 -13 9 -23 20 -10 11 -16 20 -13
20 3 0 13 -9 23 -20z m-11625 -24 c0 -2 -8 -10 -17 -17 -16 -13 -17 -12 -4 4
13 16 21 21 21 13z m11161 -13 c13 -16 12 -17 -3 -4 -17 13 -22 21 -14 21 2 0
10 -8 17 -17z m-11681 4 c0 -2 -12 -14 -27 -28 l-28 -24 24 28 c23 25 31 32
31 24z m1000 -1 c0 -2 -8 -10 -17 -17 -16 -13 -17 -12 -4 4 13 16 21 21 21 13z
m10201 -13 c13 -16 12 -17 -3 -4 -17 13 -22 21 -14 21 2 0 10 -8 17 -17z
m1009 -8 c13 -14 21 -25 18 -25 -2 0 -15 11 -28 25 -13 14 -21 25 -18 25 2 0
15 -11 28 -25z m-11730 1 c0 -2 -8 -10 -17 -17 -16 -13 -17 -12 -4 4 13 16 21
21 21 13z m11241 -13 c13 -16 12 -17 -3 -4 -10 7 -18 15 -18 17 0 8 8 3 21
-13z m-9769 -32 c86 -40 168 -128 217 -231 32 -67 36 -84 36 -156 0 -76 -3
-87 -42 -164 -29 -56 -37 -80 -26 -75 83 31 239 37 324 12 180 -53 319 -244
319 -437 0 -86 -28 -179 -78 -256 -69 -106 -157 -177 -458 -366 -154 -97 -287
-180 -295 -183 -12 -5 -126 168 -489 745 -260 414 -469 755 -463 758 117 80
511 321 551 339 90 39 159 53 253 49 71 -3 97 -9 151 -35z m-1022 15 c0 -2 -8
-10 -17 -17 -16 -13 -17 -12 -4 4 13 16 21 21 21 13z m10341 -13 c13 -16 12
-17 -3 -4 -17 13 -22 21 -14 21 2 0 10 -8 17 -17z m-11341 4 c0 -2 -15 -16
-32 -33 l-33 -29 29 33 c28 30 36 37 36 29z m500 -1 c0 -2 -8 -10 -17 -17 -16
-13 -17 -12 -4 4 13 16 21 21 21 13z m11341 -13 c13 -16 12 -17 -3 -4 -10 7
-18 15 -18 17 0 8 8 3 21 -13z m515 -15 l29 -33 -32 29 c-18 17 -33 31 -33 33
0 8 8 1 36 -29z m-11906 -11 c0 -2 -10 -12 -22 -23 l-23 -19 19 23 c18 21 26
27 26 19z m11445 -17 c10 -11 16 -20 13 -20 -3 0 -13 9 -23 20 -10 11 -16 20
-13 20 3 0 13 -9 23 -20z m-11975 -13 c0 -2 -17 -19 -37 -38 l-38 -34 34 38
c33 34 41 42 41 34z m12520 -32 c19 -19 32 -35 29 -35 -3 0 -20 16 -39 35 -19
19 -32 35 -29 35 3 0 20 -16 39 -35z m-12040 22 c0 -2 -10 -12 -22 -23 l-23
-19 19 23 c18 21 26 27 26 19z m11545 -17 c10 -11 16 -20 13 -20 -3 0 -13 9
-23 20 -10 11 -16 20 -13 20 3 0 13 -9 23 -20z m-11605 -33 c0 -2 -10 -12 -22
-23 l-23 -19 19 23 c18 21 26 27 26 19z m11665 -17 c10 -11 16 -20 13 -20 -3
0 -13 9 -23 20 -10 11 -16 20 -13 20 3 0 13 -9 23 -20z m-11205 6 c0 -2 -8
-10 -17 -17 -16 -13 -17 -12 -4 4 13 16 21 21 21 13z m10741 -13 c13 -16 12
-17 -3 -4 -17 13 -22 21 -14 21 2 0 10 -8 17 -17z m-11751 -38 c-24 -25 -46
-45 -49 -45 -3 0 15 20 39 45 24 25 46 45 49 45 3 0 -15 -20 -39 -45z m12790
-42 c0 -8 -9 0 -50 45 l-45 47 48 -45 c26 -24 47 -45 47 -47z m-11820 63 c0
-2 -8 -10 -17 -17 -16 -13 -17 -12 -4 4 13 16 21 21 21 13z m10821 -13 c13
-16 12 -17 -3 -4 -17 13 -22 21 -14 21 2 0 10 -8 17 -17z m-11301 4 c0 -2 -12
-14 -27 -28 l-28 -24 24 28 c23 25 31 32 31 24z m11790 -22 c13 -14 21 -25 18
-25 -2 0 -15 11 -28 25 -13 14 -21 25 -18 25 2 0 15 -11 28 -25z m-11360 -9
c0 -2 -8 -10 -17 -17 -16 -13 -17 -12 -4 4 13 16 21 21 21 13z m10921 -13 c13
-16 12 -17 -3 -4 -10 7 -18 15 -18 17 0 8 8 3 21 -13z m-11421 -16 c0 -2 -12
-14 -27 -28 l-28 -24 24 28 c23 25 31 32 31 24z m11930 -22 c13 -14 21 -25 18
-25 -2 0 -15 11 -28 25 -13 14 -21 25 -18 25 2 0 15 -11 28 -25z m-11480 11
c0 -2 -8 -10 -17 -17 -16 -13 -17 -12 -4 4 13 16 21 21 21 13z m11021 -13 c13
-16 12 -17 -3 -4 -17 13 -22 21 -14 21 2 0 10 -8 17 -17z m-11981 -6 c0 -1
-93 -94 -207 -207 l-208 -205 205 208 c190 192 210 212 210 204z m13130 -202
c113 -113 203 -205 200 -205 -3 0 -97 92 -210 205 -113 113 -203 205 -200 205
3 0 97 -92 210 -205z m-12220 181 c0 -2 -8 -10 -17 -17 -16 -13 -17 -12 -4 4
13 16 21 21 21 13z m11121 -13 c13 -16 12 -17 -3 -4 -10 7 -18 15 -18 17 0 8
8 3 21 -13z m-11591 4 c0 -2 -17 -19 -37 -38 l-38 -34 34 38 c33 34 41 42 41
34z m12080 -32 c19 -19 32 -35 29 -35 -3 0 -20 16 -39 35 -19 19 -32 35 -29
35 3 0 20 -16 39 -35z m-11660 2 c0 -2 -10 -12 -22 -23 l-23 -19 19 23 c18 21
26 27 26 19z m11225 -17 c10 -11 16 -20 13 -20 -3 0 -13 9 -23 20 -10 11 -16
20 -13 20 3 0 13 -9 23 -20z m-11285 -33 c0 -2 -10 -12 -22 -23 l-23 -19 19
23 c18 21 26 27 26 19z m11345 -17 c10 -11 16 -20 13 -20 -3 0 -13 9 -23 20
-10 11 -16 20 -13 20 3 0 13 -9 23 -20z m-11845 -35 c-24 -25 -46 -45 -49 -45
-3 0 15 20 39 45 24 25 46 45 49 45 3 0 -15 -20 -39 -45z m12370 -42 c0 -8 -9
0 -50 45 l-45 47 48 -45 c26 -24 47 -45 47 -47z m-11930 44 c0 -2 -15 -16 -32
-33 l-33 -29 29 33 c28 30 36 37 36 29z m11476 -29 l29 -33 -32 29 c-18 17
-33 31 -33 33 0 8 8 1 36 -29z m-11556 -41 c0 -2 -15 -16 -32 -33 l-33 -29 29
33 c28 30 36 37 36 29z m11636 -29 l29 -33 -32 29 c-18 17 -33 31 -33 33 0 8
8 1 36 -29z m-12276 -173 c-107 -107 -197 -195 -200 -195 -3 0 83 88 190 195
107 107 197 195 200 195 3 0 -83 -88 -190 -195z m12890 -2 l195 -198 -197 195
c-184 181 -203 200 -195 200 1 0 90 -89 197 -197z m-12330 134 c0 -2 -19 -21
-42 -42 l-43 -40 40 43 c36 39 45 47 45 39z m11805 -37 c21 -22 37 -40 34 -40
-3 0 -23 18 -44 40 -21 22 -37 40 -34 40 3 0 23 -18 44 -40z m-11985 -135
c-41 -41 -77 -75 -79 -75 -3 0 28 34 69 75 41 41 77 75 79 75 3 0 -28 -34 -69
-75z m6278 65 c595 -22 1101 -105 1657 -271 1516 -453 2857 -1497 3672 -2860
517 -865 808 -1762 905 -2794 20 -218 17 -914 -5 -1135 -86 -847 -294 -1577
-657 -2300 -322 -644 -712 -1182 -1225 -1695 -978 -976 -2247 -1614 -3610
-1815 -1026 -151 -2065 -57 -3043 275 -1275 433 -2398 1269 -3185 2373 -599
840 -997 1835 -1136 2842 -47 340 -55 478 -56 905 0 430 6 542 51 872 132 991
485 1920 1042 2747 1155 1714 3060 2778 5112 2855 113 4 210 8 215 9 6 1 124
-3 263 -8z m5852 -67 l75 -78 -77 75 c-43 41 -78 76 -78 77 0 8 11 -3 80 -74z
m-13010 -18 c-24 -25 -46 -45 -49 -45 -3 0 15 20 39 45 24 25 46 45 49 45 3 0
-15 -20 -39 -45z m13930 -42 c0 -8 -9 0 -50 45 l-45 47 48 -45 c26 -24 47 -45
47 -47z m-14000 -36 c0 -2 -17 -19 -37 -38 l-38 -34 34 38 c33 34 41 42 41 34z
m14060 -32 c19 -19 32 -35 29 -35 -3 0 -20 16 -39 35 -19 19 -32 35 -29 35 3
0 20 -16 39 -35z m-14140 -58 c0 -2 -15 -16 -32 -33 l-33 -29 29 33 c28 30 36
37 36 29z m14216 -29 l29 -33 -32 29 c-18 17 -33 31 -33 33 0 8 8 1 36 -29z
m-13836 -23 c-24 -25 -46 -45 -49 -45 -3 0 15 20 39 45 24 25 46 45 49 45 3 0
-15 -20 -39 -45z m13470 -42 c0 -8 -9 0 -50 45 l-45 47 48 -45 c26 -24 47 -45
47 -47z m-13920 14 c0 -2 -12 -14 -27 -28 l-28 -24 24 28 c23 25 31 32 31 24z
m830 0 c0 -1 -33 -34 -72 -72 l-73 -70 70 73 c64 67 75 77 75 69z m12735 -67
c38 -38 67 -70 64 -70 -2 0 -36 32 -74 70 -38 39 -67 70 -64 70 2 0 36 -31 74
-70z m785 45 c13 -14 21 -25 18 -25 -2 0 -15 11 -28 25 -13 14 -21 25 -18 25
2 0 15 -11 28 -25z m-13970 -28 c0 -2 -15 -16 -32 -33 l-33 -29 29 33 c28 30
36 37 36 29z m13596 -29 l29 -33 -32 29 c-18 17 -33 31 -33 33 0 8 8 1 36 -29z
m-14026 19 c0 -2 -12 -14 -27 -28 l-28 -24 24 28 c23 25 31 32 31 24z m14450
-22 c13 -14 21 -25 18 -25 -2 0 -15 11 -28 25 -13 14 -21 25 -18 25 2 0 15
-11 28 -25z m-14510 -49 c0 -2 -8 -10 -17 -17 -16 -13 -17 -12 -4 4 13 16 21
21 21 13z m1959 -602 c353 -333 641 -609 641 -613 0 -3 -38 -46 -83 -95 l-83
-90 -647 613 -647 612 81 90 c45 49 85 89 90 89 4 0 296 -273 648 -606z
m12602 589 c13 -16 12 -17 -3 -4 -17 13 -22 21 -14 21 2 0 10 -8 17 -17z
m-14151 4 c0 -2 -12 -14 -27 -28 l-28 -24 24 28 c23 25 31 32 31 24z m13750
-22 c13 -14 21 -25 18 -25 -2 0 -15 11 -28 25 -13 14 -21 25 -18 25 2 0 15
-11 28 -25z m-14200 -18 c0 -2 -10 -12 -22 -23 l-23 -19 19 23 c18 21 26 27
26 19z m810 0 c0 -2 -17 -19 -37 -38 l-38 -34 34 38 c33 34 41 42 41 34z
m13040 -32 c19 -19 32 -35 29 -35 -3 0 -20 16 -39 35 -19 19 -32 35 -29 35 3
0 20 -16 39 -35z m795 15 c10 -11 16 -20 13 -20 -3 0 -13 9 -23 20 -10 11 -16
20 -13 20 3 0 13 -9 23 -20z m-14255 -13 c0 -2 -12 -14 -27 -28 l-28 -24 24
28 c23 25 31 32 31 24z m13870 -22 c13 -14 21 -25 18 -25 -2 0 -15 11 -28 25
-13 14 -21 25 -18 25 2 0 15 -11 28 -25z m-14300 2 c0 -2 -10 -12 -22 -23
l-23 -19 19 23 c18 21 26 27 26 19z m14725 -17 c10 -11 16 -20 13 -20 -3 0
-13 9 -23 20 -10 11 -16 20 -13 20 3 0 13 -9 23 -20z m-14765 -33 c0 -2 -10
-12 -22 -23 l-23 -19 19 23 c18 21 26 27 26 19z m410 0 c0 -2 -10 -12 -22 -23
l-23 -19 19 23 c18 21 26 27 26 19z m390 0 c0 -2 -15 -16 -32 -33 l-33 -29 29
33 c28 30 36 37 36 29z m13216 -29 l29 -33 -32 29 c-18 17 -33 31 -33 33 0 8
8 1 36 -29z m379 12 c10 -11 16 -20 13 -20 -3 0 -13 9 -23 20 -10 11 -16 20
-13 20 3 0 13 -9 23 -20z m410 0 c10 -11 16 -20 13 -20 -3 0 -13 9 -23 20 -10
11 -16 20 -13 20 3 0 13 -9 23 -20z m-1156 -115 c54 -69 67 -93 58 -101 -7 -7
-203 -162 -437 -347 -234 -184 -452 -361 -484 -392 -77 -76 -108 -144 -114
-248 -8 -141 33 -260 137 -389 66 -84 142 -146 226 -185 54 -25 71 -28 170
-28 100 0 115 3 165 27 30 15 263 192 517 393 254 201 466 365 470 364 5 0 41
-43 82 -96 62 -80 72 -98 60 -107 -8 -6 -218 -172 -467 -369 -249 -196 -475
-371 -503 -388 -161 -94 -344 -110 -532 -44 -240 83 -472 341 -549 611 -18 63
-22 103 -21 199 1 205 45 306 193 448 110 106 940 761 951 750 4 -4 39 -48 78
-98z m-13689 81 c0 -2 -8 -10 -17 -17 -16 -13 -17 -12 -4 4 13 16 21 21 21 13z
m14881 -13 c13 -16 12 -17 -3 -4 -17 13 -22 21 -14 21 2 0 10 -8 17 -17z
m-14481 4 c0 -2 -10 -12 -22 -23 l-23 -19 19 23 c18 21 26 27 26 19z m14085
-17 c10 -11 16 -20 13 -20 -3 0 -13 9 -23 20 -10 11 -16 20 -13 20 3 0 13 -9
23 -20z m-13715 -3 c0 -2 -12 -14 -27 -28 l-28 -24 24 28 c23 25 31 32 31 24z
m13350 -22 c13 -14 21 -25 18 -25 -2 0 -15 11 -28 25 -13 14 -21 25 -18 25 2
0 15 -11 28 -25z m-14160 1 c0 -2 -8 -10 -17 -17 -16 -13 -17 -12 -4 4 13 16
21 21 21 13z m14961 -13 c13 -16 12 -17 -3 -4 -17 13 -22 21 -14 21 2 0 10 -8
17 -17z m-14561 4 c0 -2 -10 -12 -22 -23 l-23 -19 19 23 c18 21 26 27 26 19z
m14165 -17 c10 -11 16 -20 13 -20 -3 0 -13 9 -23 20 -10 11 -16 20 -13 20 3 0
13 -9 23 -20z m-14595 -14 c0 -2 -8 -10 -17 -17 -16 -13 -17 -12 -4 4 13 16
21 21 21 13z m15021 -13 c13 -16 12 -17 -3 -4 -17 13 -22 21 -14 21 2 0 10 -8
17 -17z m-14241 4 c0 -2 -12 -14 -27 -28 l-28 -24 24 28 c23 25 31 32 31 24z
m13470 -22 c13 -14 21 -25 18 -25 -2 0 -15 11 -28 25 -13 14 -21 25 -18 25 2
0 15 -11 28 -25z m-13860 12 c0 -2 -10 -12 -22 -23 l-23 -19 19 23 c18 21 26
27 26 19z m14245 -17 c10 -11 16 -20 13 -20 -3 0 -13 9 -23 20 -10 11 -16 20
-13 20 3 0 13 -9 23 -20z m-14665 -4 c0 -2 -8 -10 -17 -17 -16 -13 -17 -12 -4
4 13 16 21 21 21 13z m15081 -13 c13 -16 12 -17 -3 -4 -17 13 -22 21 -14 21 2
0 10 -8 17 -17z m-14701 -16 c0 -2 -10 -12 -22 -23 l-23 -19 19 23 c18 21 26
27 26 19z m14325 -17 c10 -11 16 -20 13 -20 -3 0 -13 9 -23 20 -10 11 -16 20
-13 20 3 0 13 -9 23 -20z m-14735 6 c0 -2 -8 -10 -17 -17 -16 -13 -17 -12 -4
4 13 16 21 21 21 13z m780 1 c0 -2 -10 -12 -22 -23 l-23 -19 19 23 c18 21 26
27 26 19z m13585 -17 c10 -11 16 -20 13 -20 -3 0 -13 9 -23 20 -10 11 -16 20
-13 20 3 0 13 -9 23 -20z m776 3 c13 -16 12 -17 -3 -4 -10 7 -18 15 -18 17 0
8 8 3 21 -13z m-14771 -27 c0 -2 -8 -10 -17 -17 -16 -13 -17 -12 -4 4 13 16
21 21 21 13z m14401 -13 c13 -16 12 -17 -3 -4 -17 13 -22 21 -14 21 2 0 10 -8
17 -17z m-14031 4 c0 -2 -10 -12 -22 -23 l-23 -19 19 23 c18 21 26 27 26 19z
m13665 -17 c10 -11 16 -20 13 -20 -3 0 -13 9 -23 20 -10 11 -16 20 -13 20 3 0
13 -9 23 -20z m-14065 -14 c0 -2 -8 -10 -17 -17 -16 -13 -17 -12 -4 4 13 16
21 21 21 13z m14461 -13 c13 -16 12 -17 -3 -4 -17 13 -22 21 -14 21 2 0 10 -8
17 -17z m-14881 -17 c0 -2 -8 -10 -17 -17 -16 -13 -17 -12 -4 4 13 16 21 21
21 13z m770 0 c0 -2 -8 -10 -17 -17 -16 -13 -17 -12 -4 4 13 16 21 21 21 13z
m13761 -13 c13 -16 12 -17 -3 -4 -17 13 -22 21 -14 21 2 0 10 -8 17 -17z m770
0 c13 -16 12 -17 -3 -4 -17 13 -22 21 -14 21 2 0 10 -8 17 -17z m-14571 -37
c0 -2 -8 -10 -17 -17 -16 -13 -17 -12 -4 4 13 16 21 21 21 13z m13841 -13 c13
-16 12 -17 -3 -4 -17 13 -22 21 -14 21 2 0 10 -8 17 -17z m-13871 -26 c0 -2
-10 -12 -22 -23 l-23 -19 19 23 c18 21 26 27 26 19z m13905 -17 c10 -11 16
-20 13 -20 -3 0 -13 9 -23 20 -10 11 -16 20 -13 20 3 0 13 -9 23 -20z m-13945
-34 c0 -2 -8 -10 -17 -17 -16 -13 -17 -12 -4 4 13 16 21 21 21 13z m13981 -13
c13 -16 12 -17 -3 -4 -17 13 -22 21 -14 21 2 0 10 -8 17 -17z m-14371 -17 c0
-2 -8 -10 -17 -17 -16 -13 -17 -12 -4 4 13 16 21 21 21 13z m14761 -13 c13
-16 12 -17 -3 -4 -10 7 -18 15 -18 17 0 8 8 3 21 -13z m390 0 c13 -16 12 -17
-3 -4 -10 7 -18 15 -18 17 0 8 8 3 21 -13z m-14791 3 c0 -2 -8 -10 -17 -17
-16 -13 -17 -12 -4 4 13 16 21 21 21 13z m14041 -13 c13 -16 12 -17 -3 -4 -10
7 -18 15 -18 17 0 8 8 3 21 -13z m-14071 -27 c0 -2 -8 -10 -17 -17 -16 -13
-17 -12 -4 4 13 16 21 21 21 13z m14101 -13 c13 -16 12 -17 -3 -4 -17 13 -22
21 -14 21 2 0 10 -8 17 -17z m-14481 -7 c0 -2 -8 -10 -17 -17 -16 -13 -17 -12
-4 4 13 16 21 21 21 13z m14861 -13 c13 -16 12 -17 -3 -4 -17 13 -22 21 -14
21 2 0 10 -8 17 -17z m-14511 -7 c0 -2 -8 -10 -17 -17 -16 -13 -17 -12 -4 4
13 16 21 21 21 13z m14161 -13 c13 -16 12 -17 -3 -4 -17 13 -22 21 -14 21 2 0
10 -8 17 -17z m-14191 -27 c0 -2 -8 -10 -17 -17 -16 -13 -17 -12 -4 4 13 16
21 21 21 13z m14221 -13 c13 -16 12 -17 -3 -4 -17 13 -22 21 -14 21 2 0 10 -8
17 -17z m-13821 -204 c44 -28 80 -54 80 -58 0 -4 -97 -160 -216 -346 -175
-275 -213 -340 -202 -350 36 -33 431 -276 441 -272 7 3 104 150 216 327 113
176 208 323 212 326 9 5 188 -108 189 -118 0 -4 -95 -156 -211 -338 -116 -182
-210 -332 -208 -334 13 -12 462 -296 467 -296 4 0 108 160 232 355 l224 354
36 -22 c127 -78 149 -93 150 -100 0 -10 -556 -885 -575 -906 -11 -12 -127 59
-747 454 -403 257 -739 473 -747 480 -11 11 33 86 270 459 180 282 289 444
297 441 7 -2 48 -28 92 -56z m-1550 -439 c-6 -11 -13 -20 -16 -20 -2 0 0 9 6
20 6 11 13 20 16 20 2 0 0 -9 -6 -20z m16510 0 c6 -11 8 -20 6 -20 -3 0 -10 9
-16 20 -6 11 -8 20 -6 20 3 0 10 -9 16 -20z m-16570 -110 c-6 -11 -13 -20 -16
-20 -2 0 0 9 6 20 6 11 13 20 16 20 2 0 0 -9 -6 -20z m16630 0 c6 -11 8 -20 6
-20 -3 0 -10 9 -16 20 -6 11 -8 20 -6 20 3 0 10 -9 16 -20z m-16300 -60 c-6
-11 -13 -20 -16 -20 -2 0 0 9 6 20 6 11 13 20 16 20 2 0 0 -9 -6 -20z m15970
0 c6 -11 8 -20 6 -20 -3 0 -10 9 -16 20 -6 11 -8 20 -6 20 3 0 10 -9 16 -20z
m-16030 -110 c-6 -11 -13 -20 -16 -20 -2 0 0 9 6 20 6 11 13 20 16 20 2 0 0
-9 -6 -20z m16090 0 c6 -11 8 -20 6 -20 -3 0 -10 9 -16 20 -6 11 -8 20 -6 20
3 0 10 -9 16 -20z m-16497 -95 c-3 -9 -8 -14 -10 -11 -3 3 -2 9 2 15 9 16 15
13 8 -4z m16905 -10 c-3 -3 -9 2 -12 12 -6 14 -5 15 5 6 7 -7 10 -15 7 -18z
m-17352 -451 c-34 -82 -85 -206 -111 -276 -27 -71 -50 -126 -52 -124 -2 2 18
62 45 133 64 166 173 425 178 420 2 -2 -25 -70 -60 -153z m23 -98 c-18 -42
-33 -75 -35 -73 -2 2 10 38 27 81 18 42 33 75 35 73 2 -2 -10 -38 -27 -81z
m-91 -229 c-28 -75 -53 -135 -55 -133 -2 2 19 65 48 140 28 75 53 135 55 133
2 -2 -19 -65 -48 -140z m16960 -697 c23 -91 27 -125 26 -250 0 -168 -13 -226
-78 -365 -95 -200 -262 -352 -480 -436 -117 -45 -206 -62 -336 -63 -342 -3
-619 171 -779 491 -46 93 -296 816 -284 821 4 2 384 130 843 286 l835 283 113
-331 c62 -182 125 -378 140 -436z m-17074 556 c-9 -26 -18 -45 -20 -43 -2 2 3
25 12 51 9 26 18 45 20 43 2 -2 -3 -25 -12 -51z m30 -90 c-14 -42 -28 -75 -30
-73 -2 2 8 38 22 81 14 42 28 75 30 73 2 -2 -8 -38 -22 -81z m1482 -416 c148
-269 274 -489 279 -490 6 0 273 128 594 285 321 157 585 284 586 282 2 -1 -23
-76 -54 -166 l-56 -165 -547 -265 c-302 -146 -548 -268 -548 -271 0 -3 186
-67 414 -143 l414 -138 -39 -116 c-21 -64 -40 -117 -42 -119 -4 -4 -1677 552
-1684 560 -6 6 69 236 77 236 3 0 174 -56 379 -125 206 -68 375 -124 376 -122
1 1 -116 217 -261 479 l-263 477 45 133 c53 158 52 158 57 158 2 0 125 -220
273 -490z m-1585 299 c-22 -63 -40 -110 -40 -104 -1 15 70 227 75 222 2 -2
-14 -55 -35 -118z m-2 -198 c-13 -39 -25 -69 -27 -67 -2 3 7 36 19 75 13 39
25 69 27 67 2 -3 -7 -36 -19 -75z m-65 -15 c-10 -31 -19 -54 -22 -52 -2 2 4
29 14 60 10 31 19 54 22 52 2 -2 -4 -29 -14 -60z m-50 -170 c-15 -52 -29 -94
-32 -92 -2 3 9 48 24 100 15 53 29 95 31 93 2 -3 -8 -48 -23 -101z m65 20
c-12 -42 -24 -74 -26 -72 -2 2 6 38 18 80 12 42 24 74 26 72 2 -2 -6 -38 -18
-80z m-40 -140 c-6 -26 -13 -45 -16 -43 -2 3 1 26 8 51 6 26 13 45 16 43 2 -3
-1 -26 -8 -51z m-65 -20 c-3 -15 -8 -25 -11 -23 -2 3 -1 17 3 31 3 15 8 25 11
23 2 -3 1 -17 -3 -31z m-17 -58 c-3 -8 -6 -5 -6 6 -1 11 2 17 5 13 3 -3 4 -12
1 -19z m60 0 c-3 -8 -6 -5 -6 6 -1 11 2 17 5 13 3 -3 4 -12 1 -19z m-91 -123
c-13 -49 -25 -84 -25 -77 -1 19 42 188 46 177 1 -6 -8 -50 -21 -100z m50 -40
c-19 -71 -35 -124 -35 -117 -1 19 62 268 65 257 2 -6 -12 -68 -30 -140z m-79
-77 c-3 -8 -6 -5 -6 6 -1 11 2 17 5 13 3 -3 4 -12 1 -19z m-10 -40 c-3 -8 -6
-5 -6 6 -1 11 2 17 5 13 3 -3 4 -12 1 -19z m-13 -62 c-3 -21 -8 -35 -11 -32
-2 2 -1 20 3 40 3 21 8 35 11 32 2 -2 1 -20 -3 -40z m63 22 c-3 -8 -6 -5 -6 6
-1 11 2 17 5 13 3 -3 4 -12 1 -19z m-10 -50 c-3 -7 -5 -2 -5 12 0 14 2 19 5
13 2 -7 2 -19 0 -25z m-70 -50 c-3 -7 -5 -2 -5 12 0 14 2 19 5 13 2 -7 2 -19
0 -25z m60 10 c-3 -8 -6 -5 -6 6 -1 11 2 17 5 13 3 -3 4 -12 1 -19z m-10 -50
c-3 -7 -5 -2 -5 12 0 14 2 19 5 13 2 -7 2 -19 0 -25z m-63 -22 c-3 -21 -8 -35
-11 -32 -2 2 -1 20 3 40 3 21 8 35 11 32 2 -2 1 -20 -3 -40z m18931 -258 c19
-104 35 -199 34 -211 -1 -12 -8 14 -15 58 -8 44 -30 162 -49 261 -19 100 -35
185 -34 190 2 18 30 -113 64 -298z m-18891 163 c-10 -50 -20 -89 -22 -86 -3 2
3 45 13 95 10 50 20 89 22 86 2 -2 -4 -45 -13 -95z m-57 17 c-3 -7 -5 -2 -5
12 0 14 2 19 5 13 2 -7 2 -19 0 -25z m-10 -50 c-3 -7 -5 -2 -5 12 0 14 2 19 5
13 2 -7 2 -19 0 -25z m-12 -73 c-4 -25 -9 -44 -12 -41 -2 2 -1 25 2 51 4 25 9
44 12 41 2 -2 1 -25 -2 -51z m52 -27 c-3 -7 -5 -2 -5 12 0 14 2 19 5 13 2 -7
2 -19 0 -25z m-12 -73 c-4 -25 -9 -44 -12 -41 -2 2 -1 25 2 51 4 25 9 44 12
41 2 -2 1 -25 -2 -51z m-58 13 c-3 -7 -5 -2 -5 12 0 14 2 19 5 13 2 -7 2 -19
0 -25z m840 -10 c-3 -8 -6 -5 -6 6 -1 11 2 17 5 13 3 -3 4 -12 1 -19z m17310
0 c-3 -8 -6 -5 -6 6 -1 11 2 17 5 13 3 -3 4 -12 1 -19z m-18160 -45 c-3 -10
-5 -4 -5 12 0 17 2 24 5 18 2 -7 2 -21 0 -30z m540 -5 c-3 -8 -6 -5 -6 6 -1
11 2 17 5 13 3 -3 4 -12 1 -19z m17930 0 c-3 -8 -6 -5 -6 6 -1 11 2 17 5 13 3
-3 4 -12 1 -19z m-18420 -45 c-3 -10 -5 -4 -5 12 0 17 2 24 5 18 2 -7 2 -21 0
-30z m-60 -10 c-3 -10 -5 -4 -5 12 0 17 2 24 5 18 2 -7 2 -21 0 -30z m220 15
c-3 -8 -6 -5 -6 6 -1 11 2 17 5 13 3 -3 4 -12 1 -19z m18590 0 c-3 -8 -6 -5
-6 6 -1 11 2 17 5 13 3 -3 4 -12 1 -19z m-18760 -65 c-3 -10 -5 -4 -5 12 0 17
2 24 5 18 2 -7 2 -21 0 -30z m-60 -10 c-3 -10 -5 -4 -5 12 0 17 2 24 5 18 2
-7 2 -21 0 -30z m220 15 c-3 -8 -6 -5 -6 6 -1 11 2 17 5 13 3 -3 4 -12 1 -19z
m18610 0 c-3 -8 -6 -5 -6 6 -1 11 2 17 5 13 3 -3 4 -12 1 -19z m-18290 -10
c-3 -8 -6 -5 -6 6 -1 11 2 17 5 13 3 -3 4 -12 1 -19z m300 0 c-3 -8 -6 -5 -6
6 -1 11 2 17 5 13 3 -3 4 -12 1 -19z m17370 0 c-3 -8 -6 -5 -6 6 -1 11 2 17 5
13 3 -3 4 -12 1 -19z m-18160 -65 c-3 -10 -5 -2 -5 17 0 19 2 27 5 18 2 -10 2
-26 0 -35z m18961 -53 c0 -16 -3 -11 -9 15 -4 22 -8 51 -7 65 0 16 3 11 9 -15
4 -22 8 -51 7 -65z m-18801 68 c-3 -8 -6 -5 -6 6 -1 11 2 17 5 13 3 -3 4 -12
1 -19z m18630 0 c-3 -8 -6 -5 -6 6 -1 11 2 17 5 13 3 -3 4 -12 1 -19z m-18850
-25 c-3 -10 -5 -4 -5 12 0 17 2 24 5 18 2 -7 2 -21 0 -30z m540 15 c-3 -8 -6
-5 -6 6 -1 11 2 17 5 13 3 -3 4 -12 1 -19z m300 0 c-3 -8 -6 -5 -6 6 -1 11 2
17 5 13 3 -3 4 -12 1 -19z m17390 0 c-3 -8 -6 -5 -6 6 -1 11 2 17 5 13 3 -3 4
-12 1 -19z m300 0 c-3 -8 -6 -5 -6 6 -1 11 2 17 5 13 3 -3 4 -12 1 -19z m567
-188 c3 -41 -2 -22 -14 50 -10 63 -18 126 -18 140 1 35 25 -111 32 -190z
m-19047 123 c-3 -10 -5 -4 -5 12 0 17 2 24 5 18 2 -7 2 -21 0 -30z m-60 -20
c-3 -10 -5 -2 -5 17 0 19 2 27 5 18 2 -10 2 -26 0 -35z m840 25 c-3 -8 -6 -5
-6 6 -1 11 2 17 5 13 3 -3 4 -12 1 -19z m17410 0 c-3 -8 -6 -5 -6 6 -1 11 2
17 5 13 3 -3 4 -12 1 -19z m790 -75 c-3 -10 -5 -2 -5 17 0 19 2 27 5 18 2 -10
2 -26 0 -35z m-18990 0 c-3 -10 -5 -4 -5 12 0 17 2 24 5 18 2 -7 2 -21 0 -30z
m160 15 c-3 -8 -6 -5 -6 6 -1 11 2 17 5 13 3 -3 4 -12 1 -19z m620 0 c-3 -8
-6 -5 -6 6 -1 11 2 17 5 13 3 -3 4 -12 1 -19z m17430 0 c-3 -8 -6 -5 -6 6 -1
11 2 17 5 13 3 -3 4 -12 1 -19z m620 0 c-3 -8 -6 -5 -6 6 -1 11 2 17 5 13 3
-3 4 -12 1 -19z m-18890 -35 c-3 -10 -5 -2 -5 17 0 19 2 27 5 18 2 -10 2 -26
0 -35z m540 25 c-3 -8 -6 -5 -6 6 -1 11 2 17 5 13 3 -3 4 -12 1 -19z m18030 0
c-3 -8 -6 -5 -6 6 -1 11 2 17 5 13 3 -3 4 -12 1 -19z m511 -228 c0 -19 -6 6
-13 55 -7 50 -13 104 -13 120 0 17 6 -8 14 -55 7 -47 12 -101 12 -120z
m-19031 143 c-3 -10 -5 -2 -5 17 0 19 2 27 5 18 2 -10 2 -26 0 -35z m160 25
c-3 -8 -6 -5 -6 6 -1 11 2 17 5 13 3 -3 4 -12 1 -19z m620 0 c-3 -8 -6 -5 -6
6 -1 11 2 17 5 13 3 -3 4 -12 1 -19z m17450 0 c-3 -8 -6 -5 -6 6 -1 11 2 17 5
13 3 -3 4 -12 1 -19z m620 0 c-3 -8 -6 -5 -6 6 -1 11 2 17 5 13 3 -3 4 -12 1
-19z m-18910 -35 c-3 -10 -5 -2 -5 17 0 19 2 27 5 18 2 -10 2 -26 0 -35z m540
25 c-3 -8 -6 -5 -6 6 -1 11 2 17 5 13 3 -3 4 -12 1 -19z m18050 0 c-3 -8 -6
-5 -6 6 -1 11 2 17 5 13 3 -3 4 -12 1 -19z m-18540 -90 c-2 -13 -4 -5 -4 17
-1 22 1 32 4 23 2 -10 2 -28 0 -40z m780 30 c-3 -8 -6 -5 -6 6 -1 11 2 17 5
13 3 -3 4 -12 1 -19z m17470 0 c-3 -8 -6 -5 -6 6 -1 11 2 17 5 13 3 -3 4 -12
1 -19z m-18090 -10 c-3 -8 -6 -5 -6 6 -1 11 2 17 5 13 3 -3 4 -12 1 -19z m320
0 c-3 -8 -6 -5 -6 6 -1 11 2 17 5 13 3 -3 4 -12 1 -19z m18070 0 c-3 -8 -6 -5
-6 6 -1 11 2 17 5 13 3 -3 4 -12 1 -19z m320 0 c-3 -8 -6 -5 -6 6 -1 11 2 17
5 13 3 -3 4 -12 1 -19z m-18930 -40 c-2 -13 -4 -5 -4 17 -1 22 1 32 4 23 2
-10 2 -28 0 -40z m19171 -173 c0 -22 -6 5 -13 60 -7 55 -13 116 -13 135 1 19
6 -8 14 -60 7 -52 12 -113 12 -135z m-18341 153 c-3 -8 -6 -5 -6 6 -1 11 2 17
5 13 3 -3 4 -12 1 -19z m17490 0 c-3 -8 -6 -5 -6 6 -1 11 2 17 5 13 3 -3 4
-12 1 -19z m-18270 -40 c-2 -13 -4 -5 -4 17 -1 22 1 32 4 23 2 -10 2 -28 0
-40z m160 20 c-3 -8 -6 -5 -6 6 -1 11 2 17 5 13 3 -3 4 -12 1 -19z m320 0 c-3
-8 -6 -5 -6 6 -1 11 2 17 5 13 3 -3 4 -12 1 -19z m18090 0 c-3 -8 -6 -5 -6 6
-1 11 2 17 5 13 3 -3 4 -12 1 -19z m320 0 c-3 -8 -6 -5 -6 6 -1 11 2 17 5 13
3 -3 4 -12 1 -19z m-18950 -40 c-2 -13 -4 -5 -4 17 -1 22 1 32 4 23 2 -10 2
-28 0 -40z m830 -20 c-3 -8 -6 -5 -6 6 -1 11 2 17 5 13 3 -3 4 -12 1 -19z
m17510 0 c-3 -8 -6 -5 -6 6 -1 11 2 17 5 13 3 -3 4 -12 1 -19z m780 -50 c-2
-13 -4 -3 -4 22 0 25 2 35 4 23 2 -13 2 -33 0 -45z m-19070 0 c-2 -13 -4 -5
-4 17 -1 22 1 32 4 23 2 -10 2 -28 0 -40z m160 20 c-3 -7 -5 -2 -5 12 0 14 2
19 5 13 2 -7 2 -19 0 -25z m320 10 c-3 -8 -6 -5 -6 6 -1 11 2 17 5 13 3 -3 4
-12 1 -19z m18110 0 c-3 -8 -6 -5 -6 6 -1 11 2 17 5 13 3 -3 4 -12 1 -19z
m320 -10 c-3 -7 -5 -2 -5 12 0 14 2 19 5 13 2 -7 2 -19 0 -25z m-18970 -50
c-2 -13 -4 -3 -4 22 0 25 2 35 4 23 2 -13 2 -33 0 -45z m830 -10 c-3 -8 -6 -5
-6 6 -1 11 2 17 5 13 3 -3 4 -12 1 -19z m17530 0 c-3 -8 -6 -5 -6 6 -1 11 2
17 5 13 3 -3 4 -12 1 -19z m790 -153 c0 -47 0 -47 -7 15 -4 36 -8 85 -7 110 0
41 1 39 7 -15 4 -33 8 -82 7 -110z m-19100 88 c-2 -16 -4 -5 -4 22 0 28 2 40
4 28 2 -13 2 -35 0 -50z m480 35 c-3 -7 -5 -2 -5 12 0 14 2 19 5 13 2 -7 2
-19 0 -25z m18130 0 c-3 -7 -5 -2 -5 12 0 14 2 19 5 13 2 -7 2 -19 0 -25z
m-18450 -10 c-3 -7 -5 -2 -5 12 0 14 2 19 5 13 2 -7 2 -19 0 -25z m18770 0
c-3 -7 -5 -2 -5 12 0 14 2 19 5 13 2 -7 2 -19 0 -25z m-18990 -50 c-2 -13 -4
-3 -4 22 0 25 2 35 4 23 2 -13 2 -33 0 -45z m19210 -15 c-2 -16 -4 -3 -4 27 0
30 2 43 4 28 2 -16 2 -40 0 -55z m-18380 5 c-3 -7 -5 -2 -5 12 0 14 2 19 5 13
2 -7 2 -19 0 -25z m17550 0 c-3 -7 -5 -2 -5 12 0 14 2 19 5 13 2 -7 2 -19 0
-25z m-17850 -30 c-3 -7 -5 -2 -5 12 0 14 2 19 5 13 2 -7 2 -19 0 -25z m18150
0 c-3 -7 -5 -2 -5 12 0 14 2 19 5 13 2 -7 2 -19 0 -25z m-18630 -45 c-2 -16
-4 -5 -4 22 0 28 2 40 4 28 2 -13 2 -35 0 -50z m160 35 c-3 -7 -5 -2 -5 12 0
14 2 19 5 13 2 -7 2 -19 0 -25z m18790 0 c-3 -7 -5 -2 -5 12 0 14 2 19 5 13 2
-7 2 -19 0 -25z m-19010 -65 c-2 -16 -4 -5 -4 22 0 28 2 40 4 28 2 -13 2 -35
0 -50z m19230 -15 c-2 -18 -4 -6 -4 27 0 33 2 48 4 33 2 -15 2 -42 0 -60z
m-18400 15 c-3 -10 -5 -4 -5 12 0 17 2 24 5 18 2 -7 2 -21 0 -30z m17570 0
c-3 -10 -5 -4 -5 12 0 17 2 24 5 18 2 -7 2 -21 0 -30z m-17870 -40 c-3 -10 -5
-4 -5 12 0 17 2 24 5 18 2 -7 2 -21 0 -30z m18170 0 c-3 -10 -5 -4 -5 12 0 17
2 24 5 18 2 -7 2 -21 0 -30z m480 -60 c-2 -21 -4 -6 -4 32 0 39 2 55 4 38 2
-18 2 -50 0 -70z m-19130 -5 c-2 -18 -4 -6 -4 27 0 33 2 48 4 33 2 -15 2 -42
0 -60z m160 45 c-3 -10 -5 -4 -5 12 0 17 2 24 5 18 2 -7 2 -21 0 -30z m18810
0 c-3 -10 -5 -4 -5 12 0 17 2 24 5 18 2 -7 2 -21 0 -30z m-19030 -85 c-2 -18
-4 -4 -4 32 0 36 2 50 4 33 2 -18 2 -48 0 -65z m19250 -15 c-2 -21 -4 -4 -4
37 0 41 2 58 4 38 2 -21 2 -55 0 -75z m-18420 30 c-3 -10 -5 -2 -5 17 0 19 2
27 5 18 2 -10 2 -26 0 -35z m17590 0 c-3 -10 -5 -2 -5 17 0 19 2 27 5 18 2
-10 2 -26 0 -35z m-17890 -50 c-3 -10 -5 -2 -5 17 0 19 2 27 5 18 2 -10 2 -26
0 -35z m18190 0 c-3 -10 -5 -2 -5 17 0 19 2 27 5 18 2 -10 2 -26 0 -35z m480
-85 c-2 -24 -4 -5 -4 42 0 47 2 66 4 43 2 -24 2 -62 0 -85z m-19150 -5 c-2
-21 -4 -4 -4 37 0 41 2 58 4 38 2 -21 2 -55 0 -75z m160 60 c-3 -10 -5 -2 -5
17 0 19 2 27 5 18 2 -10 2 -26 0 -35z m18830 0 c-3 -10 -5 -2 -5 17 0 19 2 27
5 18 2 -10 2 -26 0 -35z m-19050 -125 c-2 -24 -4 -5 -4 42 0 47 2 66 4 43 2
-24 2 -62 0 -85z m19270 -15 c-2 -27 -3 -5 -3 47 0 52 1 74 3 48 2 -27 2 -69
0 -95z m-18440 65 c-2 -13 -4 -5 -4 17 -1 22 1 32 4 23 2 -10 2 -28 0 -40z
m17610 0 c-2 -13 -4 -5 -4 17 -1 22 1 32 4 23 2 -10 2 -28 0 -40z m-17910 -80
c-2 -13 -4 -3 -4 22 0 25 2 35 4 23 2 -13 2 -33 0 -45z m18210 0 c-2 -13 -4
-3 -4 22 0 25 2 35 4 23 2 -13 2 -33 0 -45z m480 -185 c-1 -43 -3 -10 -3 72 0
83 2 118 3 78 2 -40 2 -107 0 -150z m-19170 -5 c-1 -40 -3 -10 -3 67 0 77 1
110 3 73 2 -37 2 -100 0 -140z m160 125 c-2 -16 -4 -3 -4 27 0 30 2 43 4 28 2
-16 2 -40 0 -55z m18850 0 c-2 -16 -4 -3 -4 27 0 30 2 43 4 28 2 -16 2 -40 0
-55z m-18240 -110 c-2 -21 -4 -6 -4 32 0 39 2 55 4 38 2 -18 2 -50 0 -70z
m17630 0 c-2 -21 -4 -6 -4 32 0 39 2 55 4 38 2 -18 2 -50 0 -70z m-17930 -315
c-1 -51 -3 -12 -3 87 0 99 2 141 3 93 2 -48 2 -129 0 -180z m18230 0 c-1 -51
-3 -12 -3 87 0 99 2 141 3 93 2 -48 2 -129 0 -180z m-18700 -265 c-2 -38 -3
-7 -3 67 0 74 1 105 3 68 2 -38 2 -98 0 -135z m19170 -15 c-1 -40 -3 -8 -3 72
0 80 2 112 3 73 2 -40 2 -106 0 -145z m-18400 70 c-2 -18 -4 -4 -4 32 0 36 2
50 4 33 2 -18 2 -48 0 -65z m17630 0 c-2 -18 -4 -4 -4 32 0 36 2 50 4 33 2
-18 2 -48 0 -65z m-18240 -95 c-2 -16 -4 -5 -4 22 0 28 2 40 4 28 2 -13 2 -35
0 -50z m18850 0 c-2 -16 -4 -5 -4 22 0 28 2 40 4 28 2 -13 2 -35 0 -50z m210
-125 c-2 -29 -3 -8 -3 47 0 55 1 79 3 53 2 -26 2 -71 0 -100z m-18740 60 c-2
-13 -4 -3 -4 22 0 25 2 35 4 23 2 -13 2 -33 0 -45z m18210 0 c-2 -13 -4 -3 -4
22 0 25 2 35 4 23 2 -13 2 -33 0 -45z m-18740 -70 c-2 -24 -4 -5 -4 42 0 47 2
66 4 43 2 -24 2 -62 0 -85z m60 -45 c-2 -21 -4 -4 -4 37 0 41 2 58 4 38 2 -21
2 -55 0 -75z m19150 -15 c-2 -24 -4 -5 -4 42 0 47 2 66 4 43 2 -24 2 -62 0
-85z m-18380 65 c-3 -10 -5 -2 -5 17 0 19 2 27 5 18 2 -10 2 -26 0 -35z
m17610 0 c-3 -10 -5 -2 -5 17 0 19 2 27 5 18 2 -10 2 -26 0 -35z m-18220 -70
c-3 -10 -5 -2 -5 17 0 19 2 27 5 18 2 -10 2 -26 0 -35z m18830 0 c-3 -10 -5
-2 -5 17 0 19 2 27 5 18 2 -10 2 -26 0 -35z m-18510 -30 c-3 -10 -5 -4 -5 12
0 17 2 24 5 18 2 -7 2 -21 0 -30z m18190 0 c-3 -10 -5 -4 -5 12 0 17 2 24 5
18 2 -7 2 -21 0 -30z m530 -60 c-2 -21 -4 -6 -4 32 0 39 2 55 4 38 2 -18 2
-50 0 -70z m-19250 -5 c-2 -18 -4 -6 -4 27 0 33 2 48 4 33 2 -15 2 -42 0 -60z
m830 15 c-3 -10 -5 -4 -5 12 0 17 2 24 5 18 2 -7 2 -21 0 -30z m17590 0 c-3
-10 -5 -4 -5 12 0 17 2 24 5 18 2 -7 2 -21 0 -30z m-18360 -55 c-2 -18 -4 -6
-4 27 0 33 2 48 4 33 2 -15 2 -42 0 -60z m19130 -10 c-2 -18 -4 -4 -4 32 0 36
2 50 4 33 2 -18 2 -48 0 -65z m-18970 -5 c-3 -10 -5 -4 -5 12 0 17 2 24 5 18
2 -7 2 -21 0 -30z m18810 0 c-3 -10 -5 -4 -5 12 0 17 2 24 5 18 2 -7 2 -21 0
-30z m-18490 -15 c-3 -7 -5 -2 -5 12 0 14 2 19 5 13 2 -7 2 -19 0 -25z m18170
0 c-3 -7 -5 -2 -5 12 0 14 2 19 5 13 2 -7 2 -19 0 -25z m530 -60 c-2 -18 -4
-6 -4 27 0 33 2 48 4 33 2 -15 2 -42 0 -60z m-19230 -5 c-2 -16 -4 -3 -4 27 0
30 2 43 4 28 2 -16 2 -40 0 -55z m830 25 c-3 -7 -5 -2 -5 12 0 14 2 19 5 13 2
-7 2 -19 0 -25z m17570 0 c-3 -7 -5 -2 -5 12 0 14 2 19 5 13 2 -7 2 -19 0 -25z
m-18340 -55 c-2 -16 -4 -3 -4 27 0 30 2 43 4 28 2 -16 2 -40 0 -55z m19110 -5
c-2 -18 -4 -6 -4 27 0 33 2 48 4 33 2 -15 2 -42 0 -60z m-18950 0 c-3 -7 -5
-2 -5 12 0 14 2 19 5 13 2 -7 2 -19 0 -25z m18790 0 c-3 -7 -5 -2 -5 12 0 14
2 19 5 13 2 -7 2 -19 0 -25z m-18470 -20 c-3 -7 -5 -2 -5 12 0 14 2 19 5 13 2
-7 2 -19 0 -25z m18150 0 c-3 -7 -5 -2 -5 12 0 14 2 19 5 13 2 -7 2 -19 0 -25z
m530 -55 c-2 -16 -4 -3 -4 27 0 30 2 43 4 28 2 -16 2 -40 0 -55z m-19210 0
c-2 -16 -4 -5 -4 22 0 28 2 40 4 28 2 -13 2 -35 0 -50z m830 25 c-3 -7 -5 -2
-5 12 0 14 2 19 5 13 2 -7 2 -19 0 -25z m17550 0 c-3 -7 -5 -2 -5 12 0 14 2
19 5 13 2 -7 2 -19 0 -25z m-18320 -50 c-2 -13 -4 -3 -4 22 0 25 2 35 4 23 2
-13 2 -33 0 -45z m19090 -5 c-2 -16 -4 -5 -4 22 0 28 2 40 4 28 2 -13 2 -35 0
-50z m-18930 -5 c-3 -7 -5 -2 -5 12 0 14 2 19 5 13 2 -7 2 -19 0 -25z m18770
0 c-3 -7 -5 -2 -5 12 0 14 2 19 5 13 2 -7 2 -19 0 -25z m-18450 0 c-3 -8 -6
-5 -6 6 -1 11 2 17 5 13 3 -3 4 -12 1 -19z m18130 0 c-3 -8 -6 -5 -6 6 -1 11
2 17 5 13 3 -3 4 -12 1 -19z m-17830 -30 c-3 -7 -5 -2 -5 12 0 14 2 19 5 13 2
-7 2 -19 0 -25z m17530 0 c-3 -7 -5 -2 -5 12 0 14 2 19 5 13 2 -7 2 -19 0 -25z
m830 -30 c-2 -13 -4 -3 -4 22 0 25 2 35 4 23 2 -13 2 -33 0 -45z m-19190 0
c-2 -13 -4 -5 -4 17 -1 22 1 32 4 23 2 -10 2 -28 0 -40z m60 -30 c-2 -13 -4
-3 -4 22 0 25 2 35 4 23 2 -13 2 -33 0 -45z m19070 0 c-2 -13 -4 -3 -4 22 0
25 2 35 4 23 2 -13 2 -33 0 -45z m-18910 0 c-3 -8 -6 -5 -6 6 -1 11 2 17 5 13
3 -3 4 -12 1 -19z m320 0 c-3 -8 -6 -5 -6 6 -1 11 2 17 5 13 3 -3 4 -12 1 -19z
m18110 0 c-3 -8 -6 -5 -6 6 -1 11 2 17 5 13 3 -3 4 -12 1 -19z m320 0 c-3 -8
-6 -5 -6 6 -1 11 2 17 5 13 3 -3 4 -12 1 -19z m-18130 -20 c-3 -8 -6 -5 -6 6
-1 11 2 17 5 13 3 -3 4 -12 1 -19z m17510 0 c-3 -8 -6 -5 -6 6 -1 11 2 17 5
13 3 -3 4 -12 1 -19z m830 -40 c-2 -13 -4 -3 -4 22 0 25 2 35 4 23 2 -13 2
-33 0 -45z m-19170 0 c-2 -13 -4 -5 -4 17 -1 22 1 32 4 23 2 -10 2 -28 0 -40z
m60 -20 c-2 -13 -4 -5 -4 17 -1 22 1 32 4 23 2 -10 2 -28 0 -40z m19050 -10
c-2 -13 -4 -3 -4 22 0 25 2 35 4 23 2 -13 2 -33 0 -45z m-18890 0 c-3 -7 -5
-2 -5 12 0 14 2 19 5 13 2 -7 2 -19 0 -25z m18730 0 c-3 -7 -5 -2 -5 12 0 14
2 19 5 13 2 -7 2 -19 0 -25z m-18410 0 c-3 -8 -6 -5 -6 6 -1 11 2 17 5 13 3
-3 4 -12 1 -19z m18090 0 c-3 -8 -6 -5 -6 6 -1 11 2 17 5 13 3 -3 4 -12 1 -19z
m-17790 -10 c-3 -8 -6 -5 -6 6 -1 11 2 17 5 13 3 -3 4 -12 1 -19z m17490 0
c-3 -8 -6 -5 -6 6 -1 11 2 17 5 13 3 -3 4 -12 1 -19z m828 -68 c-4 -39 -9 -69
-12 -67 -2 3 -1 37 3 76 3 40 9 70 11 67 3 -3 2 -37 -2 -76z m-19148 18 c-2
-13 -4 -5 -4 17 -1 22 1 32 4 23 2 -10 2 -28 0 -40z m60 -15 c-3 -10 -5 -2 -5
17 0 19 2 27 5 18 2 -10 2 -26 0 -35z m19030 -5 c-2 -13 -4 -5 -4 17 -1 22 1
32 4 23 2 -10 2 -28 0 -40z m-18550 10 c-3 -8 -6 -5 -6 6 -1 11 2 17 5 13 3
-3 4 -12 1 -19z m18070 0 c-3 -8 -6 -5 -6 6 -1 11 2 17 5 13 3 -3 4 -12 1 -19z
m-18390 -10 c-3 -8 -6 -5 -6 6 -1 11 2 17 5 13 3 -3 4 -12 1 -19z m18710 0
c-3 -8 -6 -5 -6 6 -1 11 2 17 5 13 3 -3 4 -12 1 -19z m-18090 -10 c-3 -8 -6
-5 -6 6 -1 11 2 17 5 13 3 -3 4 -12 1 -19z m17470 0 c-3 -8 -6 -5 -6 6 -1 11
2 17 5 13 3 -3 4 -12 1 -19z m-18300 -45 c-3 -10 -5 -2 -5 17 0 19 2 27 5 18
2 -10 2 -26 0 -35z m60 -20 c-3 -10 -5 -2 -5 17 0 19 2 27 5 18 2 -10 2 -26 0
-35z m19003 -58 c-7 -53 -15 -94 -17 -91 -3 2 1 47 8 100 7 53 15 94 17 91 3
-2 -1 -47 -8 -100z m-18843 63 c-3 -8 -6 -5 -6 6 -1 11 2 17 5 13 3 -3 4 -12
1 -19z m320 0 c-3 -8 -6 -5 -6 6 -1 11 2 17 5 13 3 -3 4 -12 1 -19z m18050 0
c-3 -8 -6 -5 -6 6 -1 11 2 17 5 13 3 -3 4 -12 1 -19z m320 0 c-3 -8 -6 -5 -6
6 -1 11 2 17 5 13 3 -3 4 -12 1 -19z m208 -78 c-4 -34 -9 -59 -12 -57 -2 3 -1
33 3 66 4 34 9 60 11 57 3 -3 2 -32 -2 -66z m-19108 13 c-3 -10 -5 -2 -5 17 0
19 2 27 5 18 2 -10 2 -26 0 -35z m60 -10 c-3 -10 -5 -2 -5 17 0 19 2 27 5 18
2 -10 2 -26 0 -35z m160 5 c-3 -8 -6 -5 -6 6 -1 11 2 17 5 13 3 -3 4 -12 1
-19z m18670 0 c-3 -8 -6 -5 -6 6 -1 11 2 17 5 13 3 -3 4 -12 1 -19z m-18880
-55 c-3 -10 -5 -4 -5 12 0 17 2 24 5 18 2 -7 2 -21 0 -30z m60 -20 c-3 -10 -5
-2 -5 17 0 19 2 27 5 18 2 -10 2 -26 0 -35z m480 15 c-3 -8 -6 -5 -6 6 -1 11
2 17 5 13 3 -3 4 -12 1 -19z m18010 0 c-3 -8 -6 -5 -6 6 -1 11 2 17 5 13 3 -3
4 -12 1 -19z m-18330 -10 c-3 -8 -6 -5 -6 6 -1 11 2 17 5 13 3 -3 4 -12 1 -19z
m18650 0 c-3 -8 -6 -5 -6 6 -1 11 2 17 5 13 3 -3 4 -12 1 -19z m210 -55 c-3
-10 -5 -2 -5 17 0 19 2 27 5 18 2 -10 2 -26 0 -35z m-19070 0 c-3 -10 -5 -4
-5 12 0 17 2 24 5 18 2 -7 2 -21 0 -30z m60 -10 c-3 -10 -5 -4 -5 12 0 17 2
24 5 18 2 -7 2 -21 0 -30z m18928 -145 c-15 -84 -29 -155 -32 -158 -6 -6 -6
-3 28 200 13 79 25 137 27 128 2 -9 -9 -85 -23 -170z m-18978 95 c-3 -10 -5
-4 -5 12 0 17 2 24 5 18 2 -7 2 -21 0 -30z m19050 0 c-3 -10 -5 -4 -5 12 0 17
2 24 5 18 2 -7 2 -21 0 -30z m-18990 -10 c-3 -10 -5 -4 -5 12 0 17 2 24 5 18
2 -7 2 -21 0 -30z m-50 -50 c-3 -10 -5 -4 -5 12 0 17 2 24 5 18 2 -7 2 -21 0
-30z m19030 0 c-3 -10 -5 -4 -5 12 0 17 2 24 5 18 2 -7 2 -21 0 -30z m-18970
-10 c-3 -10 -5 -4 -5 12 0 17 2 24 5 18 2 -7 2 -21 0 -30z m480 15 c-3 -8 -6
-5 -6 6 -1 11 2 17 5 13 3 -3 4 -12 1 -19z m300 0 c-3 -8 -6 -5 -6 6 -1 11 2
17 5 13 3 -3 4 -12 1 -19z m17350 0 c-3 -8 -6 -5 -6 6 -1 11 2 17 5 13 3 -3 4
-12 1 -19z m300 0 c-3 -8 -6 -5 -6 6 -1 11 2 17 5 13 3 -3 4 -12 1 -19z
m-18480 -65 c-3 -10 -5 -4 -5 12 0 17 2 24 5 18 2 -7 2 -21 0 -30z m19010 0
c-3 -10 -5 -4 -5 12 0 17 2 24 5 18 2 -7 2 -21 0 -30z m-18950 -10 c-3 -10 -5
-4 -5 12 0 17 2 24 5 18 2 -7 2 -21 0 -30z m-50 -50 c-3 -10 -5 -4 -5 12 0 17
2 24 5 18 2 -7 2 -21 0 -30z m540 15 c-3 -8 -6 -5 -6 6 -1 11 2 17 5 13 3 -3
4 -12 1 -19z m17910 0 c-3 -8 -6 -5 -6 6 -1 11 2 17 5 13 3 -3 4 -12 1 -19z
m538 -33 c-4 -25 -9 -44 -12 -41 -2 2 -1 25 2 51 4 25 9 44 12 41 2 -2 1 -25
-2 -51z m-18928 13 c-3 -7 -5 -2 -5 12 0 14 2 19 5 13 2 -7 2 -19 0 -25z m-50
-50 c-3 -7 -5 -2 -5 12 0 14 2 19 5 13 2 -7 2 -19 0 -25z m60 -5 c-3 -10 -5
-4 -5 12 0 17 2 24 5 18 2 -7 2 -21 0 -30z m-50 -45 c-3 -7 -5 -2 -5 12 0 14
2 19 5 13 2 -7 2 -19 0 -25z m18950 0 c-3 -7 -5 -2 -5 12 0 14 2 19 5 13 2 -7
2 -19 0 -25z m-18890 -10 c-3 -7 -5 -2 -5 12 0 14 2 19 5 13 2 -7 2 -19 0 -25z
m18830 0 c-3 -7 -5 -2 -5 12 0 14 2 19 5 13 2 -7 2 -19 0 -25z m-18880 -40
c-3 -7 -5 -2 -5 12 0 14 2 19 5 13 2 -7 2 -19 0 -25z m18930 0 c-3 -7 -5 -2
-5 12 0 14 2 19 5 13 2 -7 2 -19 0 -25z m-18870 -10 c-3 -7 -5 -2 -5 12 0 14
2 19 5 13 2 -7 2 -19 0 -25z m18808 -18 c-4 -23 -9 -39 -11 -37 -3 2 -2 23 2
46 4 23 9 40 11 37 3 -3 2 -23 -2 -46z m-18847 -65 c0 -16 -2 -15 -8 5 -4 14
-8 36 -8 50 0 22 1 22 8 -5 4 -16 8 -39 8 -50z m18897 25 c-4 -23 -9 -39 -11
-37 -3 2 -2 23 2 46 4 23 9 40 11 37 3 -3 2 -23 -2 -46z m-18848 8 c-3 -7 -5
-2 -5 12 0 14 2 19 5 13 2 -7 2 -19 0 -25z m21 -83 c0 -16 -2 -15 -8 5 -4 14
-8 34 -8 45 0 16 2 15 8 -5 4 -14 8 -34 8 -45z m18751 -4 c-6 -34 -14 -60 -16
-57 -2 2 1 32 8 65 6 34 14 60 16 57 2 -2 -1 -32 -8 -65z m-18812 -3 c-3 -7
-5 -2 -5 12 0 14 2 19 5 13 2 -7 2 -19 0 -25z m18869 -5 c-13 -73 -118 -494
-122 -490 -3 2 18 94 45 203 27 109 55 227 61 262 13 66 27 88 16 25z m-18848
-78 c0 -16 -2 -15 -8 5 -4 14 -8 34 -8 45 0 16 2 15 8 -5 4 -14 8 -34 8 -45z
m49 33 c-3 -7 -5 -2 -5 12 0 14 2 19 5 13 2 -7 2 -19 0 -25z m10 -40 c-3 -8
-6 -5 -6 6 -1 11 2 17 5 13 3 -3 4 -12 1 -19z m18702 -42 c-7 -31 -14 -54 -16
-52 -3 3 1 30 8 60 7 31 14 54 16 52 3 -3 -1 -30 -8 -60z m-18730 -86 c0 -8
-7 8 -15 35 -7 28 -13 57 -13 65 0 8 7 -7 15 -35 7 -27 13 -57 13 -65z m49 45
c0 -16 -2 -15 -8 5 -4 14 -8 34 -8 45 0 16 2 15 8 -5 4 -14 8 -34 8 -45z m9
-47 c-3 -8 -6 -5 -6 6 -1 11 2 17 5 13 3 -3 4 -12 1 -19z m18633 -78 c-12 -50
-24 -89 -26 -87 -3 2 6 45 18 95 12 50 24 89 26 87 3 -2 -6 -45 -18 -95z
m-18683 38 c-3 -8 -6 -5 -6 6 -1 11 2 17 5 13 3 -3 4 -12 1 -19z m60 0 c-3 -8
-6 -5 -6 6 -1 11 2 17 5 13 3 -3 4 -12 1 -19z m-50 -40 c-3 -8 -6 -5 -6 6 -1
11 2 17 5 13 3 -3 4 -12 1 -19z m60 0 c-3 -8 -6 -5 -6 6 -1 11 2 17 5 13 3 -3
4 -12 1 -19z m-50 -40 c-3 -8 -6 -5 -6 6 -1 11 2 17 5 13 3 -3 4 -12 1 -19z
m60 0 c-3 -8 -6 -5 -6 6 -1 11 2 17 5 13 3 -3 4 -12 1 -19z m-50 -40 c-3 -8
-6 -5 -6 6 -1 11 2 17 5 13 3 -3 4 -12 1 -19z m60 0 c-3 -8 -6 -5 -6 6 -1 11
2 17 5 13 3 -3 4 -12 1 -19z m-33 -88 c4 -24 3 -29 -3 -15 -4 11 -11 36 -15
55 -4 24 -3 29 3 15 4 -11 11 -36 15 -55z m60 0 c4 -24 3 -29 -3 -15 -4 11
-11 36 -15 55 -4 24 -3 29 3 15 4 -11 11 -36 15 -55z m18510 -39 c-15 -56 -29
-100 -31 -97 -2 2 8 49 23 105 15 56 29 99 31 97 3 -2 -8 -50 -23 -105z
m-18540 -71 c4 -24 3 -29 -3 -15 -4 11 -11 36 -15 55 -4 24 -3 29 3 15 4 -11
11 -36 15 -55z m60 0 c4 -24 3 -29 -3 -15 -4 11 -11 36 -15 55 -4 24 -3 29 3
15 4 -11 11 -36 15 -55z m18502 -62 c-32 -115 -62 -201 -52 -153 10 50 80 284
84 281 2 -3 -12 -60 -32 -128z m-18537 -28 c0 -9 -4 -8 -9 5 -5 11 -9 27 -9
35 0 9 4 8 9 -5 5 -11 9 -27 9 -35z m69 -30 c0 -8 -6 1 -13 20 -7 19 -13 42
-13 50 0 8 6 -1 13 -20 7 -19 13 -42 13 -50z m18386 -19 c-15 -50 -29 -89 -31
-87 -2 2 8 45 23 95 15 50 29 89 31 87 3 -2 -8 -45 -23 -95z m-18426 -51 c0
-8 -6 1 -13 20 -7 19 -13 42 -13 50 0 8 6 -1 13 -20 7 -19 13 -42 13 -50z m70
-30 c0 -8 -6 1 -13 20 -7 19 -13 42 -13 50 0 8 6 -1 13 -20 7 -19 13 -42 13
-50z m-20 -130 c0 -8 -8 8 -18 35 -10 28 -18 57 -18 65 0 8 8 -7 18 -35 10
-27 18 -57 18 -65z m18292 -57 c-409 -1230 -1060 -2357 -1938 -3353 -167 -190
-579 -604 -762 -766 -569 -504 -1120 -897 -1755 -1251 -176 -98 -577 -303
-592 -303 -5 0 114 63 262 139 393 201 655 354 998 583 1167 780 2156 1814
2884 3018 363 600 684 1297 899 1952 26 81 50 145 52 143 2 -2 -20 -75 -48
-162z m60 0 c-409 -1237 -1049 -2355 -1916 -3348 -174 -200 -642 -671 -834
-841 -523 -462 -1057 -845 -1650 -1184 -145 -83 -220 -123 -220 -117 0 3 60
37 133 77 470 260 973 601 1407 955 485 396 989 900 1385 1385 743 911 1320
1964 1686 3077 29 89 55 160 57 158 2 -2 -19 -75 -48 -162z m-18214 -180 c-5
-5 -106 297 -105 312 0 6 25 -62 55 -149 29 -88 52 -161 50 -163z m-61 17 c14
-40 23 -75 21 -77 -2 -2 -14 26 -26 64 -13 37 -25 75 -28 83 -3 8 -2 12 1 9 4
-3 18 -39 32 -79z m99 -110 c5 -20 3 -19 -8 5 -7 17 -16 41 -20 55 -5 20 -3
19 8 -5 7 -16 16 -41 20 -55z m-40 -60 c5 -20 3 -19 -8 5 -7 17 -16 41 -20 55
-5 20 -3 19 8 -5 7 -16 16 -41 20 -55z m70 -20 c5 -17 4 -20 -2 -10 -5 8 -13
26 -16 40 -5 17 -4 20 2 10 5 -8 13 -26 16 -40z m-40 -60 c5 -17 4 -20 -2 -10
-5 8 -13 26 -16 40 -5 17 -4 20 2 10 5 -8 13 -26 16 -40z m90 -70 c3 -14 -2
-7 -13 15 -10 22 -21 51 -25 65 -3 14 2 7 13 -15 10 -22 21 -51 25 -65z m-64
5 c0 -5 -5 -3 -10 5 -5 8 -10 20 -10 25 0 6 5 3 10 -5 5 -8 10 -19 10 -25z
m59 -144 c28 -69 49 -126 47 -128 -4 -4 -106 240 -106 253 0 15 9 -4 59 -125z
m31 74 c0 -5 -5 -3 -10 5 -5 8 -10 20 -10 25 0 6 5 3 10 -5 5 -8 10 -19 10
-25z m96 -225 c91 -215 295 -629 414 -845 742 -1337 1798 -2485 3067 -3333
343 -229 605 -382 998 -583 149 -76 267 -139 262 -139 -15 0 -416 205 -592
303 -1581 881 -2871 2175 -3750 3762 -115 207 -319 623 -413 842 -45 106 -82
196 -82 200 1 14 15 -18 96 -207z m-47 -45 c0 -5 -6 1 -14 15 -8 14 -14 30
-14 35 0 6 6 -1 14 -15 8 -14 14 -29 14 -35z m901 20 c0 -5 -5 -3 -10 5 -5 8
-10 20 -10 25 0 6 5 3 10 -5 5 -8 10 -19 10 -25z m15911 8 c-12 -20 -14 -14
-5 12 4 9 9 14 11 11 3 -2 0 -13 -6 -23z m-16701 -267 c73 -155 91 -204 38
-101 -40 78 -148 314 -147 323 0 8 7 -6 109 -222z m530 119 c0 -5 -5 -3 -10 5
-5 8 -10 20 -10 25 0 6 5 3 10 -5 5 -8 10 -19 10 -25z m16431 8 c-12 -20 -14
-14 -5 12 4 9 9 14 11 11 3 -2 0 -13 -6 -23z m-16041 -123 c6 -11 8 -20 6 -20
-3 0 -10 9 -16 20 -6 11 -8 20 -6 20 3 0 10 -9 16 -20z m15650 0 c-6 -11 -13
-20 -16 -20 -2 0 0 9 6 20 6 11 13 20 16 20 2 0 0 -9 -6 -20z m-15920 -120 c6
-11 8 -20 6 -20 -3 0 -10 9 -16 20 -6 11 -8 20 -6 20 3 0 10 -9 16 -20z
m16190 0 c-6 -11 -13 -20 -16 -20 -2 0 0 9 6 20 6 11 13 20 16 20 2 0 0 -9 -6
-20z m-15840 -30 c6 -11 8 -20 6 -20 -3 0 -10 9 -16 20 -6 11 -8 20 -6 20 3 0
10 -9 16 -20z m15490 0 c-6 -11 -13 -20 -16 -20 -2 0 0 9 6 20 6 11 13 20 16
20 2 0 0 -9 -6 -20z m-16381 -87 c12 -24 19 -43 16 -43 -5 0 -45 75 -45 86 0
11 6 2 29 -43z m281 -73 c6 -11 8 -20 6 -20 -3 0 -10 9 -16 20 -6 11 -8 20 -6
20 3 0 10 -9 16 -20z m16710 0 c-6 -11 -13 -20 -16 -20 -2 0 0 9 6 20 6 11 13
20 16 20 2 0 0 -9 -6 -20z m-16881 -135 c337 -645 801 -1312 1314 -1890 711
-801 1602 -1516 2525 -2025 72 -40 132 -74 132 -77 0 -6 -75 34 -220 117 -593
339 -1127 722 -1650 1184 -192 170 -660 641 -834 841 -428 489 -790 995 -1107
1542 -100 172 -244 443 -236 443 3 0 37 -61 76 -135z m15811 -459 c0 -2 -8
-10 -17 -17 -16 -13 -17 -12 -4 4 13 16 21 21 21 13z m-14439 -183 c13 -16 12
-17 -3 -4 -10 7 -18 15 -18 17 0 8 8 3 21 -13z m14319 13 c0 -2 -8 -10 -17
-17 -16 -13 -17 -12 -4 4 13 16 21 21 21 13z m-14239 -123 c13 -16 12 -17 -3
-4 -17 13 -22 21 -14 21 2 0 10 -8 17 -17z m14159 13 c0 -2 -8 -10 -17 -17
-16 -13 -17 -12 -4 4 13 16 21 21 21 13z m-14509 -33 c13 -16 12 -17 -3 -4
-17 13 -22 21 -14 21 2 0 10 -8 17 -17z m14859 13 c0 -2 -8 -10 -17 -17 -16
-13 -17 -12 -4 4 13 16 21 21 21 13z m-14479 -33 c13 -16 12 -17 -3 -4 -17 13
-22 21 -14 21 2 0 10 -8 17 -17z m14099 13 c0 -2 -8 -10 -17 -17 -16 -13 -17
-12 -4 4 13 16 21 21 21 13z m-14069 -53 c13 -16 12 -17 -3 -4 -17 13 -22 21
-14 21 2 0 10 -8 17 -17z m14039 13 c0 -2 -8 -10 -17 -17 -16 -13 -17 -12 -4
4 13 16 21 21 21 13z m-14399 -23 c13 -16 12 -17 -3 -4 -10 7 -18 15 -18 17 0
8 8 3 21 -13z m30 -40 c13 -16 12 -17 -3 -4 -17 13 -22 21 -14 21 2 0 10 -8
17 -17z m370 0 c13 -16 12 -17 -3 -4 -17 13 -22 21 -14 21 2 0 10 -8 17 -17z
m13959 13 c0 -2 -8 -10 -17 -17 -16 -13 -17 -12 -4 4 13 16 21 21 21 13z m370
0 c0 -2 -8 -10 -17 -17 -16 -13 -17 -12 -4 4 13 16 21 21 21 13z m-14669 -53
c13 -16 12 -17 -3 -4 -10 7 -18 15 -18 17 0 8 8 3 21 -13z m370 0 c13 -16 12
-17 -3 -4 -10 7 -18 15 -18 17 0 8 8 3 21 -13z m13899 13 c0 -2 -8 -10 -17
-17 -16 -13 -17 -12 -4 4 13 16 21 21 21 13z m370 0 c0 -2 -8 -10 -17 -17 -16
-13 -17 -12 -4 4 13 16 21 21 21 13z m-15019 -33 c13 -16 12 -17 -3 -4 -10 7
-18 15 -18 17 0 8 8 3 21 -13z m15399 13 c0 -2 -8 -10 -17 -17 -16 -13 -17
-12 -4 4 13 16 21 21 21 13z m-14989 -33 c13 -16 12 -17 -3 -4 -10 7 -18 15
-18 17 0 8 8 3 21 -13z m14579 13 c0 -2 -8 -10 -17 -17 -16 -13 -17 -12 -4 4
13 16 21 21 21 13z m-14199 -23 c13 -16 12 -17 -3 -4 -17 13 -22 21 -14 21 2
0 10 -8 17 -17z m13819 13 c0 -2 -8 -10 -17 -17 -16 -13 -17 -12 -4 4 13 16
21 21 21 13z m-14169 -43 c13 -16 12 -17 -3 -4 -10 7 -18 15 -18 17 0 8 8 3
21 -13z m14519 13 c0 -2 -8 -10 -17 -17 -16 -13 -17 -12 -4 4 13 16 21 21 21
13z m-14909 -23 c13 -16 12 -17 -3 -4 -10 7 -18 15 -18 17 0 8 8 3 21 -13z
m15299 13 c0 -2 -8 -10 -17 -17 -16 -13 -17 -12 -4 4 13 16 21 21 21 13z
m-14519 -23 c13 -16 12 -17 -3 -4 -17 13 -22 21 -14 21 2 0 10 -8 17 -17z
m13739 13 c0 -2 -8 -10 -17 -17 -16 -13 -17 -12 -4 4 13 16 21 21 21 13z
m-14099 -33 c13 -16 12 -17 -3 -4 -17 13 -22 21 -14 21 2 0 10 -8 17 -17z
m14459 13 c0 -2 -8 -10 -17 -17 -16 -13 -17 -12 -4 4 13 16 21 21 21 13z
m-14849 -23 c13 -16 12 -17 -3 -4 -10 7 -18 15 -18 17 0 8 8 3 21 -13z m15239
13 c0 -2 -8 -10 -17 -17 -16 -13 -17 -12 -4 4 13 16 21 21 21 13z m-14445 -36
c10 -11 16 -20 13 -20 -3 0 -13 9 -23 20 -10 11 -16 20 -13 20 3 0 13 -9 23
-20z m13655 17 c0 -2 -10 -12 -22 -23 l-23 -19 19 23 c18 21 26 27 26 19z
m-14019 -34 c13 -16 12 -17 -3 -4 -10 7 -18 15 -18 17 0 8 8 3 21 -13z m14379
13 c0 -2 -8 -10 -17 -17 -16 -13 -17 -12 -4 4 13 16 21 21 21 13z m-14345 -56
c10 -11 16 -20 13 -20 -3 0 -13 9 -23 20 -10 11 -16 20 -13 20 3 0 13 -9 23
-20z m380 0 c10 -11 16 -20 13 -20 -3 0 -13 9 -23 20 -10 11 -16 20 -13 20 3
0 13 -9 23 -20z m13555 17 c0 -2 -10 -12 -22 -23 l-23 -19 19 23 c18 21 26 27
26 19z m380 0 c0 -2 -10 -12 -22 -23 l-23 -19 19 23 c18 21 26 27 26 19z
m-14279 -64 c13 -16 12 -17 -3 -4 -17 13 -22 21 -14 21 2 0 10 -8 17 -17z
m14239 13 c0 -2 -8 -10 -17 -17 -16 -13 -17 -12 -4 4 13 16 21 21 21 13z
m-13845 -26 c10 -11 16 -20 13 -20 -3 0 -13 9 -23 20 -10 11 -16 20 -13 20 3
0 13 -9 23 -20z m13455 17 c0 -2 -10 -12 -22 -23 l-23 -19 19 23 c18 21 26 27
26 19z m-14229 -34 c13 -16 12 -17 -3 -4 -17 13 -22 21 -14 21 2 0 10 -8 17
-17z m14999 13 c0 -2 -8 -10 -17 -17 -16 -13 -17 -12 -4 4 13 16 21 21 21 13z
m-14575 -36 c10 -11 16 -20 13 -20 -3 0 -13 9 -23 20 -10 11 -16 20 -13 20 3
0 13 -9 23 -20z m14155 17 c0 -2 -10 -12 -22 -23 l-23 -19 19 23 c18 21 26 27
26 19z m-14549 -34 c13 -16 12 -17 -3 -4 -10 7 -18 15 -18 17 0 8 8 3 21 -13z
m805 -15 l29 -33 -32 29 c-31 28 -38 36 -30 36 2 0 16 -15 33 -32z m13344 29
c0 -2 -15 -16 -32 -33 l-33 -29 29 33 c28 30 36 37 36 29z m790 -1 c0 -2 -8
-10 -17 -17 -16 -13 -17 -12 -4 4 13 16 21 21 21 13z m-14500 -51 c13 -14 21
-25 18 -25 -2 0 -15 11 -28 25 -13 14 -21 25 -18 25 2 0 15 -11 28 -25z
m14070 22 c0 -2 -12 -14 -27 -28 l-28 -24 24 28 c23 25 31 32 31 24z m-14469
-34 c13 -16 12 -17 -3 -4 -10 7 -18 15 -18 17 0 8 8 3 21 -13z m14859 13 c0
-2 -8 -10 -17 -17 -16 -13 -17 -12 -4 4 13 16 21 21 21 13z m-14020 -61 c19
-19 32 -35 29 -35 -3 0 -20 16 -39 35 -19 19 -32 35 -29 35 3 0 20 -16 39 -35z
m13200 32 c0 -2 -17 -19 -37 -38 l-38 -34 34 38 c33 34 41 42 41 34z m-14005
-27 c10 -11 16 -20 13 -20 -3 0 -13 9 -23 20 -10 11 -16 20 -13 20 3 0 13 -9
23 -20z m415 -5 c13 -14 21 -25 18 -25 -2 0 -15 11 -28 25 -13 14 -21 25 -18
25 2 0 15 -11 28 -25z m13970 22 c0 -2 -12 -14 -27 -28 l-28 -24 24 28 c23 25
31 32 31 24z m410 0 c0 -2 -10 -12 -22 -23 l-23 -19 19 23 c18 21 26 27 26 19z
m-14755 -67 c10 -11 16 -20 13 -20 -3 0 -13 9 -23 20 -10 11 -16 20 -13 20 3
0 13 -9 23 -20z m14715 17 c0 -2 -10 -12 -22 -23 l-23 -19 19 23 c18 21 26 27
26 19z m-14280 -42 c13 -14 21 -25 18 -25 -2 0 -15 11 -28 25 -13 14 -21 25
-18 25 2 0 15 -11 28 -25z m13850 22 c0 -2 -12 -14 -27 -28 l-28 -24 24 28
c23 25 31 32 31 24z m-13380 -104 c0 -8 -9 0 -50 45 l-45 47 48 -45 c26 -24
47 -45 47 -47z m12930 42 c-24 -25 -46 -45 -49 -45 -3 0 15 20 39 45 24 25 46
45 49 45 3 0 -15 -20 -39 -45z m-13795 15 c10 -11 16 -20 13 -20 -3 0 -13 9
-23 20 -10 11 -16 20 -13 20 3 0 13 -9 23 -20z m14635 17 c0 -2 -10 -12 -22
-23 l-23 -19 19 23 c18 21 26 27 26 19z m-14174 -69 l29 -33 -32 29 c-31 28
-38 36 -30 36 2 0 16 -15 33 -32z m13724 29 c0 -2 -15 -16 -32 -33 l-33 -29
29 33 c28 30 36 37 36 29z m-14135 -37 c10 -11 16 -20 13 -20 -3 0 -13 9 -23
20 -10 11 -16 20 -13 20 3 0 13 -9 23 -20z m14535 17 c0 -2 -10 -12 -22 -23
l-23 -19 19 23 c18 21 26 27 26 19z m-14485 -77 c10 -11 16 -20 13 -20 -3 0
-13 9 -23 20 -10 11 -16 20 -13 20 3 0 13 -9 23 -20z m440 -20 c21 -22 37 -40
34 -40 -3 0 -23 18 -44 40 -21 22 -37 40 -34 40 3 0 23 -18 44 -40z m13575 37
c0 -2 -19 -21 -42 -42 l-43 -40 40 43 c36 39 45 47 45 39z m420 0 c0 -2 -10
-12 -22 -23 l-23 -19 19 23 c18 21 26 27 26 19z m-13460 -172 c91 -91 163
-165 160 -165 -3 0 -79 74 -170 165 -91 91 -163 165 -160 165 3 0 79 -74 170
-165z m12630 162 c0 -1 -75 -76 -167 -167 l-168 -165 165 168 c153 155 170
172 170 164z m-13550 -72 c13 -14 21 -25 18 -25 -2 0 -15 11 -28 25 -13 14
-21 25 -18 25 2 0 15 -11 28 -25z m14330 22 c0 -2 -12 -14 -27 -28 l-28 -24
24 28 c23 25 31 32 31 24z m-13825 -107 c33 -33 57 -60 54 -60 -2 0 -31 27
-64 60 -33 33 -57 60 -54 60 2 0 31 -27 64 -60z m13355 57 c0 -1 -28 -29 -62
-62 l-63 -60 60 63 c55 58 65 67 65 59z m-13794 -49 l29 -33 -32 29 c-18 17
-33 31 -33 33 0 8 8 1 36 -29z m14204 29 c0 -2 -15 -16 -32 -33 l-33 -29 29
33 c28 30 36 37 36 29z m-14120 -122 c19 -19 32 -35 29 -35 -3 0 -20 16 -39
35 -19 19 -32 35 -29 35 3 0 20 -16 39 -35z m14040 32 c0 -2 -17 -19 -37 -38
l-38 -34 34 38 c33 34 41 42 41 34z m-13480 -162 c47 -47 82 -85 80 -85 -3 0
-43 38 -90 85 -47 47 -82 85 -80 85 3 0 43 -38 90 -85z m12970 82 c0 -1 -39
-41 -87 -87 l-88 -85 85 88 c79 81 90 92 90 84z m-13410 -82 c30 -30 52 -55
49 -55 -2 0 -29 25 -59 55 -30 30 -52 55 -49 55 2 0 29 -25 59 -55z m13820 52
c0 -1 -26 -27 -57 -57 l-58 -55 55 58 c50 53 60 62 60 54z m-12915 -87 c27
-27 47 -50 44 -50 -3 0 -27 23 -54 50 -27 28 -47 50 -44 50 3 0 27 -22 54 -50z
m12005 47 c0 -1 -24 -25 -52 -52 l-53 -50 50 53 c46 48 55 57 55 49z m-11890
-152 c19 -19 32 -35 29 -35 -3 0 -20 16 -39 35 -19 19 -32 35 -29 35 3 0 20
-16 39 -35z m11760 32 c0 -2 -17 -19 -37 -38 l-38 -34 34 38 c33 34 41 42 41
34z m-12565 -117 c55 -55 97 -100 95 -100 -3 0 -50 45 -105 100 -55 55 -97
100 -95 100 3 0 50 -45 105 -100z m13435 97 c0 -1 -46 -47 -102 -102 l-103
-100 100 103 c93 95 105 107 105 99z m-12995 -77 c33 -33 57 -60 54 -60 -2 0
-31 27 -64 60 -33 33 -57 60 -54 60 2 0 31 -27 64 -60z m12515 57 c0 -1 -28
-29 -62 -62 l-63 -60 60 63 c55 58 65 67 65 59z m-12070 -62 c13 -14 21 -25
18 -25 -2 0 -15 11 -28 25 -13 14 -21 25 -18 25 2 0 15 -11 28 -25z m11590 22
c0 -2 -12 -14 -27 -28 l-28 -24 24 28 c23 25 31 32 31 24z m-11520 -82 c13
-14 21 -25 18 -25 -2 0 -15 11 -28 25 -13 14 -21 25 -18 25 2 0 15 -11 28 -25z
m11450 22 c0 -2 -12 -14 -27 -28 l-28 -24 24 28 c23 25 31 32 31 24z m-11840
-72 c19 -19 32 -35 29 -35 -3 0 -20 16 -39 35 -19 19 -32 35 -29 35 3 0 20
-16 39 -35z m12240 32 c0 -2 -17 -19 -37 -38 l-38 -34 34 38 c33 34 41 42 41
34z m-11785 -37 c10 -11 16 -20 13 -20 -3 0 -13 9 -23 20 -10 11 -16 20 -13
20 3 0 13 -9 23 -20z m11315 17 c0 -2 -10 -12 -22 -23 l-23 -19 19 23 c18 21
26 27 26 19z m-11255 -67 c10 -11 16 -20 13 -20 -3 0 -13 9 -23 20 -10 11 -16
20 -13 20 3 0 13 -9 23 -20z m11195 17 c0 -2 -10 -12 -22 -23 l-23 -19 19 23
c18 21 26 27 26 19z m-11614 -49 l29 -33 -32 29 c-31 28 -38 36 -30 36 2 0 16
-15 33 -32z m12044 29 c0 -2 -15 -16 -32 -33 l-33 -29 29 33 c28 30 36 37 36
29z m-12480 -62 c30 -30 52 -55 49 -55 -2 0 -29 25 -59 55 -30 30 -52 55 -49
55 2 0 29 -25 59 -55z m12940 52 c0 -1 -26 -27 -57 -57 l-58 -55 55 58 c50 53
60 62 60 54z m-12035 -27 c10 -11 16 -20 13 -20 -3 0 -13 9 -23 20 -10 11 -16
20 -13 20 3 0 13 -9 23 -20z m11095 17 c0 -2 -10 -12 -22 -23 l-23 -19 19 23
c18 21 26 27 26 19z m-11490 -72 c13 -14 21 -25 18 -25 -2 0 -15 11 -28 25
-13 14 -21 25 -18 25 2 0 15 -11 28 -25z m451 8 c13 -16 12 -17 -3 -4 -17 13
-22 21 -14 21 2 0 10 -8 17 -17z m10979 13 c0 -2 -8 -10 -17 -17 -16 -13 -17
-12 -4 4 13 16 21 21 21 13z m460 1 c0 -2 -12 -14 -27 -28 l-28 -24 24 28 c23
25 31 32 31 24z m-11389 -54 c13 -16 12 -17 -3 -4 -17 13 -22 21 -14 21 2 0
10 -8 17 -17z m10879 13 c0 -2 -8 -10 -17 -17 -16 -13 -17 -12 -4 4 13 16 21
21 21 13z m-11315 -36 c10 -11 16 -20 13 -20 -3 0 -13 9 -23 20 -10 11 -16 20
-13 20 3 0 13 -9 23 -20z m11755 17 c0 -2 -10 -12 -22 -23 l-23 -19 19 23 c18
21 26 27 26 19z m-12205 -47 c21 -22 37 -40 34 -40 -3 0 -23 18 -44 40 -21 22
-37 40 -34 40 3 0 23 -18 44 -40z m926 23 c13 -16 12 -17 -3 -4 -17 13 -22 21
-14 21 2 0 10 -8 17 -17z m10799 13 c0 -2 -8 -10 -17 -17 -16 -13 -17 -12 -4
4 13 16 21 21 21 13z m950 1 c0 -2 -19 -21 -42 -42 l-43 -40 40 43 c36 39 45
47 45 39z m-12165 -57 c10 -11 16 -20 13 -20 -3 0 -13 9 -23 20 -10 11 -16 20
-13 20 3 0 13 -9 23 -20z m11635 17 c0 -2 -10 -12 -22 -23 l-23 -19 19 23 c18
21 26 27 26 19z m-11129 -44 c13 -16 12 -17 -3 -4 -17 13 -22 21 -14 21 2 0
10 -8 17 -17z m10619 13 c0 -2 -8 -10 -17 -17 -16 -13 -17 -12 -4 4 13 16 21
21 21 13z m-11544 -48 l29 -33 -32 29 c-31 28 -38 36 -30 36 2 0 16 -15 33
-32z m479 12 c10 -11 16 -20 13 -20 -3 0 -13 9 -23 20 -10 11 -16 20 -13 20 3
0 13 -9 23 -20z m11515 17 c0 -2 -10 -12 -22 -23 l-23 -19 19 23 c18 21 26 27
26 19z m490 0 c0 -2 -15 -16 -32 -33 l-33 -29 29 33 c28 30 36 37 36 29z
m-11955 -57 c10 -11 16 -20 13 -20 -3 0 -13 9 -23 20 -10 11 -16 20 -13 20 3
0 13 -9 23 -20z m11415 17 c0 -2 -10 -12 -22 -23 l-23 -19 19 23 c18 21 26 27
26 19z m-11860 -62 c13 -14 21 -25 18 -25 -2 0 -15 11 -28 25 -13 14 -21 25
-18 25 2 0 15 -11 28 -25z m495 5 c10 -11 16 -20 13 -20 -3 0 -13 9 -23 20
-10 11 -16 20 -13 20 3 0 13 -9 23 -20z m11315 17 c0 -2 -10 -12 -22 -23 l-23
-19 19 23 c18 21 26 27 26 19z m500 0 c0 -2 -12 -14 -27 -28 l-28 -24 24 28
c23 25 31 32 31 24z m-11319 -24 c13 -16 12 -17 -3 -4 -17 13 -22 21 -14 21 2
0 10 -8 17 -17z m10319 13 c0 -2 -8 -10 -17 -17 -16 -13 -17 -12 -4 4 13 16
21 21 21 13z m-10769 -43 c13 -16 12 -17 -3 -4 -17 13 -22 21 -14 21 2 0 10
-8 17 -17z m11219 13 c0 -2 -8 -10 -17 -17 -16 -13 -17 -12 -4 4 13 16 21 21
21 13z m-11695 -36 c10 -11 16 -20 13 -20 -3 0 -13 9 -23 20 -10 11 -16 20
-13 20 3 0 13 -9 23 -20z m12175 17 c0 -2 -10 -12 -22 -23 l-23 -19 19 23 c18
21 26 27 26 19z m-11649 -34 c13 -16 12 -17 -3 -4 -17 13 -22 21 -14 21 2 0
10 -8 17 -17z m11119 13 c0 -2 -8 -10 -17 -17 -16 -13 -17 -12 -4 4 13 16 21
21 21 13z m-11585 -46 c10 -11 16 -20 13 -20 -3 0 -13 9 -23 20 -10 11 -16 20
-13 20 3 0 13 -9 23 -20z m506 3 c13 -16 12 -17 -3 -4 -17 13 -22 21 -14 21 2
0 10 -8 17 -17z m11039 13 c0 -2 -8 -10 -17 -17 -16 -13 -17 -12 -4 4 13 16
21 21 21 13z m510 1 c0 -2 -10 -12 -22 -23 l-23 -19 19 23 c18 21 26 27 26 19z
m-11509 -44 c13 -16 12 -17 -3 -4 -17 13 -22 21 -14 21 2 0 10 -8 17 -17z
m10959 13 c0 -2 -8 -10 -17 -17 -16 -13 -17 -12 -4 4 13 16 21 21 21 13z
m-11445 -36 c10 -11 16 -20 13 -20 -3 0 -13 9 -23 20 -10 11 -16 20 -13 20 3
0 13 -9 23 -20z m11935 17 c0 -2 -10 -12 -22 -23 l-23 -19 19 23 c18 21 26 27
26 19z m-11409 -24 c13 -16 12 -17 -3 -4 -17 13 -22 21 -14 21 2 0 10 -8 17
-17z m10879 13 c0 -2 -8 -10 -17 -17 -16 -13 -17 -12 -4 4 13 16 21 21 21 13z
m-11355 -46 c10 -11 16 -20 13 -20 -3 0 -13 9 -23 20 -10 11 -16 20 -13 20 3
0 13 -9 23 -20z m516 3 c13 -16 12 -17 -3 -4 -10 7 -18 15 -18 17 0 8 8 3 21
-13z m10799 13 c0 -2 -8 -10 -17 -17 -16 -13 -17 -12 -4 4 13 16 21 21 21 13z
m520 1 c0 -2 -10 -12 -22 -23 l-23 -19 19 23 c18 21 26 27 26 19z m-11785 -57
c10 -11 16 -20 13 -20 -3 0 -13 9 -23 20 -10 11 -16 20 -13 20 3 0 13 -9 23
-20z m11735 17 c0 -2 -10 -12 -22 -23 l-23 -19 19 23 c18 21 26 27 26 19z
m-11689 -54 c13 -16 12 -17 -3 -4 -17 13 -22 21 -14 21 2 0 10 -8 17 -17z
m11639 13 c0 -2 -8 -10 -17 -17 -16 -13 -17 -12 -4 4 13 16 21 21 21 13z
m-11589 -53 c13 -16 12 -17 -3 -4 -17 13 -22 21 -14 21 2 0 10 -8 17 -17z
m11539 13 c0 -2 -8 -10 -17 -17 -16 -13 -17 -12 -4 4 13 16 21 21 21 13z
m-11499 -43 c13 -16 12 -17 -3 -4 -17 13 -22 21 -14 21 2 0 10 -8 17 -17z
m11459 13 c0 -2 -8 -10 -17 -17 -16 -13 -17 -12 -4 4 13 16 21 21 21 13z
m-11419 -43 c13 -16 12 -17 -3 -4 -17 13 -22 21 -14 21 2 0 10 -8 17 -17z
m11379 13 c0 -2 -8 -10 -17 -17 -16 -13 -17 -12 -4 4 13 16 21 21 21 13z
m-11339 -43 c13 -16 12 -17 -3 -4 -17 13 -22 21 -14 21 2 0 10 -8 17 -17z
m11299 13 c0 -2 -8 -10 -17 -17 -16 -13 -17 -12 -4 4 13 16 21 21 21 13z
m-11259 -43 c13 -16 12 -17 -3 -4 -17 13 -22 21 -14 21 2 0 10 -8 17 -17z
m11219 13 c0 -2 -8 -10 -17 -17 -16 -13 -17 -12 -4 4 13 16 21 21 21 13z
m-11179 -43 c13 -16 12 -17 -3 -4 -17 13 -22 21 -14 21 2 0 10 -8 17 -17z
m11139 13 c0 -2 -8 -10 -17 -17 -16 -13 -17 -12 -4 4 13 16 21 21 21 13z
m-11069 -63 c13 -16 12 -17 -3 -4 -17 13 -22 21 -14 21 2 0 10 -8 17 -17z
m10999 13 c0 -2 -8 -10 -17 -17 -16 -13 -17 -12 -4 4 13 16 21 21 21 13z
m-10929 -63 c13 -16 12 -17 -3 -4 -17 13 -22 21 -14 21 2 0 10 -8 17 -17z
m10859 13 c0 -2 -8 -10 -17 -17 -16 -13 -17 -12 -4 4 13 16 21 21 21 13z
m-9620 -62 c0 -2 -9 0 -20 6 -11 6 -20 13 -20 16 0 2 9 0 20 -6 11 -6 20 -13
20 -16z m8400 21 c0 -2 -10 -9 -22 -15 -22 -11 -22 -10 -4 4 21 17 26 19 26
11z m-8190 -130 c0 -3 -18 4 -40 15 -22 11 -40 23 -40 25 0 3 18 -4 40 -15 22
-11 40 -23 40 -25z m8020 40 c0 -2 -18 -14 -40 -25 -22 -11 -40 -18 -40 -15 0
2 17 13 38 24 42 23 42 23 42 16z m-7910 -90 c14 -8 21 -14 15 -14 -5 0 -21 6
-35 14 -14 8 -20 14 -15 14 6 0 21 -6 35 -14z m7740 0 c-14 -8 -29 -14 -35
-14 -5 0 1 6 15 14 14 8 30 14 35 14 6 0 -1 -6 -15 -14z m-7884 -263 c-5 -4
-146 66 -146 73 0 3 34 -12 75 -32 41 -20 73 -39 71 -41z m8154 73 c0 -6 -137
-75 -147 -75 -6 1 134 77 145 80 1 0 2 -2 2 -5z m-8470 -271 c0 -2 -9 0 -20 6
-11 6 -20 13 -20 16 0 2 9 0 20 -6 11 -6 20 -13 20 -16z m8680 21 c0 -2 -10
-9 -22 -15 -22 -11 -22 -10 -4 4 21 17 26 19 26 11z m-8440 -135 c8 -5 11 -10
5 -10 -5 0 -17 5 -25 10 -8 5 -10 10 -5 10 6 0 17 -5 25 -10z m8180 0 c-8 -5
-19 -10 -25 -10 -5 0 -3 5 5 10 8 5 20 10 25 10 6 0 3 -5 -5 -10z m-8174 -248
c-5 -4 -466 226 -466 233 0 3 106 -48 235 -112 128 -65 232 -119 231 -121z
m8614 233 c0 -6 -457 -235 -467 -234 -6 0 453 236 465 238 1 1 2 -1 2 -4z
m-6113 -161 c-3 -3 -12 -4 -19 -1 -8 3 -5 6 6 6 11 1 17 -2 13 -5z m3170 0
c-3 -3 -12 -4 -19 -1 -8 3 -5 6 6 6 11 1 17 -2 13 -5z m-5435 -105 c103 -46
186 -84 184 -86 -4 -5 -308 127 -361 156 -58 32 -32 22 177 -70z m7853 69
c-60 -32 -357 -159 -361 -155 -2 2 76 38 174 80 97 43 184 82 192 87 8 5 20
10 25 9 6 0 -8 -9 -30 -21z m-5348 -4 c-3 -3 -12 -4 -19 -1 -8 3 -5 6 6 6 11
1 17 -2 13 -5z m2690 0 c-3 -3 -12 -4 -19 -1 -8 3 -5 6 6 6 11 1 17 -2 13 -5z
m-2620 -10 c-3 -3 -12 -4 -19 -1 -8 3 -5 6 6 6 11 1 17 -2 13 -5z m2550 0 c-3
-3 -12 -4 -19 -1 -8 3 -5 6 6 6 11 1 17 -2 13 -5z m-2480 -10 c-3 -3 -12 -4
-19 -1 -8 3 -5 6 6 6 11 1 17 -2 13 -5z m2410 0 c-3 -3 -12 -4 -19 -1 -8 3 -5
6 6 6 11 1 17 -2 13 -5z m-2340 -10 c-3 -3 -12 -4 -19 -1 -8 3 -5 6 6 6 11 1
17 -2 13 -5z m2270 0 c-3 -3 -12 -4 -19 -1 -8 3 -5 6 6 6 11 1 17 -2 13 -5z
m-5147 -29 c25 -13 41 -24 35 -24 -5 0 -30 11 -55 24 -25 13 -40 24 -35 24 6
0 30 -11 55 -24z m2963 18 c-7 -2 -19 -2 -25 0 -7 3 -2 5 12 5 14 0 19 -2 13
-5z m2100 0 c-7 -2 -19 -2 -25 0 -7 3 -2 5 12 5 14 0 19 -2 13 -5z m2957 -18
c-25 -13 -49 -24 -55 -24 -5 0 10 11 35 24 25 13 50 24 55 24 6 0 -10 -11 -35
-24z m-4967 8 c-7 -2 -19 -2 -25 0 -7 3 -2 5 12 5 14 0 19 -2 13 -5z m1920 0
c-7 -2 -19 -2 -25 0 -7 3 -2 5 12 5 14 0 19 -2 13 -5z m-1820 -10 c-7 -2 -19
-2 -25 0 -7 3 -2 5 12 5 14 0 19 -2 13 -5z m1720 0 c-7 -2 -19 -2 -25 0 -7 3
-2 5 12 5 14 0 19 -2 13 -5z m-1610 -10 c-7 -2 -21 -2 -30 0 -10 3 -4 5 12 5
17 0 24 -2 18 -5z m1510 0 c-7 -2 -21 -2 -30 0 -10 3 -4 5 12 5 17 0 24 -2 18
-5z m-1380 -10 c-7 -2 -21 -2 -30 0 -10 3 -4 5 12 5 17 0 24 -2 18 -5z m1250
0 c-7 -2 -21 -2 -30 0 -10 3 -4 5 12 5 17 0 24 -2 18 -5z m-4543 -23 c19 -11
31 -19 25 -19 -5 0 -26 8 -45 19 -19 11 -30 19 -25 19 6 0 26 -8 45 -19z
m3468 13 c-10 -2 -28 -2 -40 0 -13 2 -5 4 17 4 22 1 32 -1 23 -4z m910 0 c-10
-2 -28 -2 -40 0 -13 2 -5 4 17 4 22 1 32 -1 23 -4z m3442 -13 c-19 -11 -39
-19 -45 -19 -5 0 6 8 25 19 19 11 40 19 45 19 6 0 -6 -8 -25 -19z m-3992 3
c-32 -2 -86 -2 -120 0 -35 2 -9 3 57 3 66 0 94 -1 63 -3z m270 0 c-32 -2 -86
-2 -120 0 -35 2 -9 3 57 3 66 0 94 -1 63 -3z m-3983 -53 c33 -16 56 -29 50
-29 -5 0 -37 13 -70 29 -33 15 -55 28 -50 28 6 0 37 -12 70 -28z m7590 0 c-33
-16 -64 -29 -70 -29 -13 1 107 57 120 57 6 0 -17 -13 -50 -28z m-7415 -10 c8
-5 11 -10 5 -10 -5 0 -17 5 -25 10 -8 5 -10 10 -5 10 6 0 17 -5 25 -10z m7240
0 c-8 -5 -19 -10 -25 -10 -5 0 -3 5 5 10 8 5 20 10 25 10 6 0 3 -5 -5 -10z
m-7190 -20 c8 -5 11 -10 5 -10 -5 0 -17 5 -25 10 -8 5 -10 10 -5 10 6 0 17 -5
25 -10z m7140 0 c-8 -5 -19 -10 -25 -10 -5 0 -3 5 5 10 8 5 20 10 25 10 6 0 3
-5 -5 -10z m-7143 -61 c73 -29 131 -54 129 -56 -4 -4 -253 94 -276 109 -22 14
-6 8 147 -53z m7273 52 c-27 -16 -272 -112 -276 -108 -2 2 58 29 134 59 128
53 177 69 142 49z m-7220 -11 c8 -5 11 -10 5 -10 -5 0 -17 5 -25 10 -8 5 -10
10 -5 10 6 0 17 -5 25 -10z m1627 4 c-3 -3 -12 -4 -19 -1 -8 3 -5 6 6 6 11 1
17 -2 13 -5z m3790 0 c-3 -3 -12 -4 -19 -1 -8 3 -5 6 6 6 11 1 17 -2 13 -5z
m1623 -4 c-8 -5 -19 -10 -25 -10 -5 0 -3 5 5 10 8 5 20 10 25 10 6 0 3 -5 -5
-10z m-6935 -41 c22 -11 29 -16 15 -13 -14 4 -43 15 -65 25 -22 11 -29 16 -15
13 14 -4 43 -15 65 -25z m6860 12 c-47 -21 -92 -36 -85 -28 7 8 103 46 115 46
6 0 -8 -8 -30 -18z m-5138 -7 c-3 -3 -12 -4 -19 -1 -8 3 -5 6 6 6 11 1 17 -2
13 -5z m3390 0 c-3 -3 -12 -4 -19 -1 -8 3 -5 6 6 6 11 1 17 -2 13 -5z m-3280
-20 c-3 -3 -12 -4 -19 -1 -8 3 -5 6 6 6 11 1 17 -2 13 -5z m3170 0 c-3 -3 -12
-4 -19 -1 -8 3 -5 6 6 6 11 1 17 -2 13 -5z m-4897 -26 c10 -6 7 -7 -10 -2 -14
3 -32 11 -40 16 -10 6 -7 7 10 2 14 -3 32 -11 40 -16z m6650 13 c-8 -5 -26
-11 -40 -15 -21 -5 -20 -3 5 9 32 15 60 20 35 6z m-4803 -7 c-3 -3 -12 -4 -19
-1 -8 3 -5 6 6 6 11 1 17 -2 13 -5z m2930 0 c-3 -3 -12 -4 -19 -1 -8 3 -5 6 6
6 11 1 17 -2 13 -5z m-2870 -10 c-3 -3 -12 -4 -19 -1 -8 3 -5 6 6 6 11 1 17
-2 13 -5z m2810 0 c-3 -3 -12 -4 -19 -1 -8 3 -5 6 6 6 11 1 17 -2 13 -5z
m-2740 -10 c-3 -3 -12 -4 -19 -1 -8 3 -5 6 6 6 11 1 17 -2 13 -5z m2670 0 c-3
-3 -12 -4 -19 -1 -8 3 -5 6 6 6 11 1 17 -2 13 -5z m-4707 -26 c10 -6 7 -7 -10
-2 -14 3 -32 11 -40 16 -10 6 -7 7 10 2 14 -3 32 -11 40 -16z m188 -3 c29 -9
52 -19 49 -21 -5 -5 -127 36 -127 43 0 3 6 3 13 1 6 -3 36 -13 65 -23z m1919
19 c-3 -3 -12 -4 -19 -1 -8 3 -5 6 6 6 11 1 17 -2 13 -5z m2530 0 c-3 -3 -12
-4 -19 -1 -8 3 -5 6 6 6 11 1 17 -2 13 -5z m1973 2 c0 -6 -123 -47 -127 -42
-2 2 22 13 54 24 62 22 73 24 73 18z m160 -5 c-8 -5 -26 -11 -40 -15 -21 -5
-20 -3 5 9 32 15 60 20 35 6z m-4593 -7 c-3 -3 -12 -4 -19 -1 -8 3 -5 6 6 6
11 1 17 -2 13 -5z m2390 0 c-3 -3 -12 -4 -19 -1 -8 3 -5 6 6 6 11 1 17 -2 13
-5z m-2310 -10 c-3 -3 -12 -4 -19 -1 -8 3 -5 6 6 6 11 1 17 -2 13 -5z m2230 0
c-3 -3 -12 -4 -19 -1 -8 3 -5 6 6 6 11 1 17 -2 13 -5z m-4389 -29 c29 -9 52
-19 49 -21 -5 -5 -127 36 -127 43 0 3 6 3 13 1 6 -3 36 -13 65 -23z m2245 18
c-7 -2 -19 -2 -25 0 -7 3 -2 5 12 5 14 0 19 -2 13 -5z m2060 0 c-7 -2 -19 -2
-25 0 -7 3 -2 5 12 5 14 0 19 -2 13 -5z m2297 3 c0 -6 -123 -47 -127 -42 -2 2
22 13 54 24 62 22 73 24 73 18z m-4263 -12 c-3 -3 -12 -4 -19 -1 -8 3 -5 6 6
6 11 1 17 -2 13 -5z m1870 0 c-3 -3 -12 -4 -19 -1 -8 3 -5 6 6 6 11 1 17 -2
13 -5z m-1764 -11 c-7 -2 -19 -2 -25 0 -7 3 -2 5 12 5 14 0 19 -2 13 -5z
m1660 0 c-7 -2 -19 -2 -25 0 -7 3 -2 5 12 5 14 0 19 -2 13 -5z m-1540 -10 c-7
-2 -21 -2 -30 0 -10 3 -4 5 12 5 17 0 24 -2 18 -5z m1430 0 c-7 -2 -21 -2 -30
0 -10 3 -4 5 12 5 17 0 24 -2 18 -5z m-1285 -10 c-10 -2 -26 -2 -35 0 -10 3
-2 5 17 5 19 0 27 -2 18 -5z m1140 0 c-10 -2 -26 -2 -35 0 -10 3 -2 5 17 5 19
0 27 -2 18 -5z m-935 -10 c-13 -2 -33 -2 -45 0 -13 2 -3 4 22 4 25 0 35 -2 23
-4z m740 0 c-13 -2 -33 -2 -45 0 -13 2 -3 4 22 4 25 0 35 -2 23 -4z m-3413
-52 c63 -22 110 -40 105 -40 -14 -1 -246 77 -254 85 -7 8 4 4 149 -45z m6188
44 c-7 -8 -240 -85 -253 -84 -10 1 232 87 249 88 5 1 7 -1 4 -4z m-6023 -35
c28 -10 43 -18 35 -18 -8 0 -37 8 -65 18 -27 10 -43 18 -35 18 8 0 38 -8 65
-18z m5740 0 c-27 -10 -57 -18 -65 -18 -8 0 8 8 35 18 28 10 57 18 65 18 8 0
-7 -8 -35 -18z m-5625 -35 c19 -7 28 -13 20 -13 -8 0 -31 6 -50 13 -19 7 -28
13 -20 13 8 0 31 -6 50 -13z m5510 0 c-19 -7 -42 -13 -50 -13 -8 0 1 6 20 13
19 7 42 13 50 13 8 0 -1 -6 -20 -13z m-5425 -25 c13 -5 14 -9 5 -9 -8 0 -24 4
-35 9 -13 5 -14 9 -5 9 8 0 24 -4 35 -9z m5340 0 c-11 -5 -27 -9 -35 -9 -9 0
-8 4 5 9 11 5 27 9 35 9 9 0 8 -4 -5 -9z m-5495 -15 c19 -7 28 -13 20 -13 -8
0 -31 6 -50 13 -19 7 -28 13 -20 13 8 0 31 -6 50 -13z m5650 0 c-19 -7 -42
-13 -50 -13 -8 0 1 6 20 13 19 7 42 13 50 13 8 0 -1 -6 -20 -13z m-5425 -5
c13 -5 14 -9 5 -9 -8 0 -24 4 -35 9 -13 5 -14 9 -5 9 8 0 24 -4 35 -9z m5200
0 c-11 -5 -27 -9 -35 -9 -9 0 -8 4 5 9 11 5 27 9 35 9 9 0 8 -4 -5 -9z m-5325
-25 c19 -7 28 -13 20 -13 -8 0 -31 6 -50 13 -19 7 -28 13 -20 13 8 0 31 -6 50
-13z m195 5 c13 -5 14 -9 5 -9 -8 0 -24 4 -35 9 -13 5 -14 9 -5 9 8 0 24 -4
35 -9z m5060 0 c-11 -5 -27 -9 -35 -9 -9 0 -8 4 5 9 11 5 27 9 35 9 9 0 8 -4
-5 -9z m195 -5 c-19 -7 -42 -13 -50 -13 -8 0 1 6 20 13 19 7 42 13 50 13 8 0
-1 -6 -20 -13z m-5203 -11 c-3 -3 -12 -4 -19 -1 -8 3 -5 6 6 6 11 1 17 -2 13
-5z m4950 0 c-3 -3 -12 -4 -19 -1 -8 3 -5 6 6 6 11 1 17 -2 13 -5z m-5072 -25
c14 -6 9 -7 -15 -3 -19 4 -44 11 -55 15 -14 6 -9 7 15 3 19 -4 44 -11 55 -15z
m162 15 c-3 -3 -12 -4 -19 -1 -8 3 -5 6 6 6 11 1 17 -2 13 -5z m4870 0 c-3 -3
-12 -4 -19 -1 -8 3 -5 6 6 6 11 1 17 -2 13 -5z m208 -3 c-11 -5 -36 -11 -55
-14 -35 -6 -34 -6 5 8 43 14 84 19 50 6z m-4980 -21 c39 -11 54 -18 34 -15
-39 6 -130 33 -114 34 6 0 42 -8 80 -19z m4696 4 c-25 -8 -61 -16 -80 -19 -20
-2 -7 4 29 14 75 22 117 26 51 5z m-4886 -14 c13 -5 14 -9 5 -9 -8 0 -24 4
-35 9 -13 5 -14 9 -5 9 8 0 24 -4 35 -9z m5060 0 c-11 -5 -27 -9 -35 -9 -9 0
-8 4 5 9 11 5 27 9 35 9 9 0 8 -4 -5 -9z m-5008 -16 c-3 -3 -12 -4 -19 -1 -8
3 -5 6 6 6 11 1 17 -2 13 -5z m240 0 c-3 -3 -12 -4 -19 -1 -8 3 -5 6 6 6 11 1
17 -2 13 -5z m820 0 c-3 -3 -12 -4 -19 -1 -8 3 -5 6 6 6 11 1 17 -2 13 -5z
m2830 0 c-3 -3 -12 -4 -19 -1 -8 3 -5 6 6 6 11 1 17 -2 13 -5z m820 0 c-3 -3
-12 -4 -19 -1 -8 3 -5 6 6 6 11 1 17 -2 13 -5z m240 0 c-3 -3 -12 -4 -19 -1
-8 3 -5 6 6 6 11 1 17 -2 13 -5z m-4910 -10 c-3 -3 -12 -4 -19 -1 -8 3 -5 6 6
6 11 1 17 -2 13 -5z m240 0 c-3 -3 -12 -4 -19 -1 -8 3 -5 6 6 6 11 1 17 -2 13
-5z m850 0 c-3 -3 -12 -4 -19 -1 -8 3 -5 6 6 6 11 1 17 -2 13 -5z m2690 0 c-3
-3 -12 -4 -19 -1 -8 3 -5 6 6 6 11 1 17 -2 13 -5z m850 0 c-3 -3 -12 -4 -19
-1 -8 3 -5 6 6 6 11 1 17 -2 13 -5z m240 0 c-3 -3 -12 -4 -19 -1 -8 3 -5 6 6
6 11 1 17 -2 13 -5z m-4830 -10 c-3 -3 -12 -4 -19 -1 -8 3 -5 6 6 6 11 1 17
-2 13 -5z m273 -4 c20 -6 21 -8 5 -8 -11 0 -31 4 -45 8 -20 6 -21 8 -5 8 11 0
31 -4 45 -8z m847 4 c-3 -3 -12 -4 -19 -1 -8 3 -5 6 6 6 11 1 17 -2 13 -5z
m2550 0 c-3 -3 -12 -4 -19 -1 -8 3 -5 6 6 6 11 1 17 -2 13 -5z m863 -4 c-14
-4 -34 -8 -45 -8 -16 0 -15 2 5 8 14 4 34 8 45 8 16 0 15 -2 -5 -8z m257 4
c-3 -3 -12 -4 -19 -1 -8 3 -5 6 6 6 11 1 17 -2 13 -5z m-4750 -10 c-3 -3 -12
-4 -19 -1 -8 3 -5 6 6 6 11 1 17 -2 13 -5z m1160 0 c-3 -3 -12 -4 -19 -1 -8 3
-5 6 6 6 11 1 17 -2 13 -5z m2390 0 c-3 -3 -12 -4 -19 -1 -8 3 -5 6 6 6 11 1
17 -2 13 -5z m1160 0 c-3 -3 -12 -4 -19 -1 -8 3 -5 6 6 6 11 1 17 -2 13 -5z
m-4670 -10 c-3 -3 -12 -4 -19 -1 -8 3 -5 6 6 6 11 1 17 -2 13 -5z m283 -4 c20
-6 21 -8 5 -8 -11 0 -31 4 -45 8 -20 6 -21 8 -5 8 11 0 31 -4 45 -8z m917 4
c-3 -3 -12 -4 -19 -1 -8 3 -5 6 6 6 11 1 17 -2 13 -5z m2230 0 c-3 -3 -12 -4
-19 -1 -8 3 -5 6 6 6 11 1 17 -2 13 -5z m933 -4 c-14 -4 -34 -8 -45 -8 -16 0
-15 2 5 8 14 4 34 8 45 8 16 0 15 -2 -5 -8z m267 4 c-3 -3 -12 -4 -19 -1 -8 3
-5 6 6 6 11 1 17 -2 13 -5z m-4590 -10 c-3 -3 -12 -4 -19 -1 -8 3 -5 6 6 6 11
1 17 -2 13 -5z m1250 0 c-3 -3 -12 -4 -19 -1 -8 3 -5 6 6 6 11 1 17 -2 13 -5z
m2050 0 c-3 -3 -12 -4 -19 -1 -8 3 -5 6 6 6 11 1 17 -2 13 -5z m1250 0 c-3 -3
-12 -4 -19 -1 -8 3 -5 6 6 6 11 1 17 -2 13 -5z m-4510 -10 c-3 -3 -12 -4 -19
-1 -8 3 -5 6 6 6 11 1 17 -2 13 -5z m266 -1 c-7 -2 -19 -2 -25 0 -7 3 -2 5 12
5 14 0 19 -2 13 -5z m1040 0 c-7 -2 -19 -2 -25 0 -7 3 -2 5 12 5 14 0 19 -2
13 -5z m1860 0 c-7 -2 -19 -2 -25 0 -7 3 -2 5 12 5 14 0 19 -2 13 -5z m1040 0
c-7 -2 -19 -2 -25 0 -7 3 -2 5 12 5 14 0 19 -2 13 -5z m264 1 c-3 -3 -12 -4
-19 -1 -8 3 -5 6 6 6 11 1 17 -2 13 -5z m-4397 -14 c20 -6 21 -8 5 -8 -11 0
-31 4 -45 8 -20 6 -21 8 -5 8 11 0 31 -4 45 -8z m243 3 c-7 -2 -19 -2 -25 0
-7 3 -2 5 12 5 14 0 19 -2 13 -5z m1100 0 c-7 -2 -19 -2 -25 0 -7 3 -2 5 12 5
14 0 19 -2 13 -5z m1640 0 c-7 -2 -19 -2 -25 0 -7 3 -2 5 12 5 14 0 19 -2 13
-5z m1100 0 c-7 -2 -19 -2 -25 0 -7 3 -2 5 12 5 14 0 19 -2 13 -5z m257 -3
c-14 -4 -34 -8 -45 -8 -16 0 -15 2 5 8 14 4 34 8 45 8 16 0 15 -2 -5 -8z
m-4047 -7 c-7 -2 -19 -2 -25 0 -7 3 -2 5 12 5 14 0 19 -2 13 -5z m1185 0 c-10
-2 -26 -2 -35 0 -10 3 -2 5 17 5 19 0 27 -2 18 -5z m1380 0 c-10 -2 -26 -2
-35 0 -10 3 -2 5 17 5 19 0 27 -2 18 -5z m1175 0 c-7 -2 -19 -2 -25 0 -7 3 -2
5 12 5 14 0 19 -2 13 -5z m-3943 -13 c20 -6 21 -8 5 -8 -11 0 -31 4 -45 8 -20
6 -21 8 -5 8 11 0 31 -4 45 -8z m253 3 c-7 -2 -19 -2 -25 0 -7 3 -2 5 12 5 14
0 19 -2 13 -5z m1295 0 c-10 -2 -28 -2 -40 0 -13 2 -5 4 17 4 22 1 32 -1 23
-4z m1070 0 c-10 -2 -28 -2 -40 0 -13 2 -5 4 17 4 22 1 32 -1 23 -4z m1275 0
c-7 -2 -19 -2 -25 0 -7 3 -2 5 12 5 14 0 19 -2 13 -5z m267 -3 c-14 -4 -34 -8
-45 -8 -16 0 -15 2 5 8 14 4 34 8 45 8 16 0 15 -2 -5 -8z m-3847 -7 c-7 -2
-21 -2 -30 0 -10 3 -4 5 12 5 17 0 24 -2 18 -5z m1475 0 c-15 -2 -42 -2 -60 0
-18 2 -6 4 27 4 33 0 48 -2 33 -4z m610 0 c-15 -2 -42 -2 -60 0 -18 2 -6 4 27
4 33 0 48 -2 33 -4z m1445 0 c-7 -2 -21 -2 -30 0 -10 3 -4 5 12 5 17 0 24 -2
18 -5z m-3780 -10 c-7 -2 -19 -2 -25 0 -7 3 -2 5 12 5 14 0 19 -2 13 -5z m300
0 c-7 -2 -19 -2 -25 0 -7 3 -2 5 12 5 14 0 19 -2 13 -5z m3420 0 c-7 -2 -19
-2 -25 0 -7 3 -2 5 12 5 14 0 19 -2 13 -5z m300 0 c-7 -2 -19 -2 -25 0 -7 3
-2 5 12 5 14 0 19 -2 13 -5z m-3918 -17 c33 -8 49 -14 35 -14 -28 0 -133 25
-110 26 8 1 42 -5 75 -12z m258 7 c-7 -2 -21 -2 -30 0 -10 3 -4 5 12 5 17 0
24 -2 18 -5z m3310 0 c-7 -2 -21 -2 -30 0 -10 3 -4 5 12 5 17 0 24 -2 18 -5z
m287 -3 c-14 -4 -36 -8 -50 -8 -22 0 -22 1 5 8 17 4 39 8 50 8 16 0 15 -2 -5
-8z m-3537 -7 c-7 -2 -21 -2 -30 0 -10 3 -4 5 12 5 17 0 24 -2 18 -5z m3190 0
c-7 -2 -21 -2 -30 0 -10 3 -4 5 12 5 17 0 24 -2 18 -5z m-3130 -10 c-7 -2 -21
-2 -30 0 -10 3 -4 5 12 5 17 0 24 -2 18 -5z m3070 0 c-7 -2 -21 -2 -30 0 -10
3 -4 5 12 5 17 0 24 -2 18 -5z m320 0 c-7 -2 -19 -2 -25 0 -7 3 -2 5 12 5 14
0 19 -2 13 -5z m-3670 -10 c-7 -2 -19 -2 -25 0 -7 3 -2 5 12 5 14 0 19 -2 13
-5z m340 0 c-7 -2 -21 -2 -30 0 -10 3 -4 5 12 5 17 0 24 -2 18 -5z m2950 0
c-7 -2 -21 -2 -30 0 -10 3 -4 5 12 5 17 0 24 -2 18 -5z m330 0 c-7 -2 -19 -2
-25 0 -7 3 -2 5 12 5 14 0 19 -2 13 -5z m-3570 -10 c-7 -2 -19 -2 -25 0 -7 3
-2 5 12 5 14 0 19 -2 13 -5z m360 0 c-7 -2 -21 -2 -30 0 -10 3 -4 5 12 5 17 0
24 -2 18 -5z m2810 0 c-7 -2 -21 -2 -30 0 -10 3 -4 5 12 5 17 0 24 -2 18 -5z
m350 0 c-7 -2 -19 -2 -25 0 -7 3 -2 5 12 5 14 0 19 -2 13 -5z m-3460 -10 c-7
-2 -21 -2 -30 0 -10 3 -4 5 12 5 17 0 24 -2 18 -5z m365 0 c-10 -2 -26 -2 -35
0 -10 3 -2 5 17 5 19 0 27 -2 18 -5z m2680 0 c-10 -2 -26 -2 -35 0 -10 3 -2 5
17 5 19 0 27 -2 18 -5z m365 0 c-7 -2 -21 -2 -30 0 -10 3 -4 5 12 5 17 0 24
-2 18 -5z m-3350 -10 c-7 -2 -21 -2 -30 0 -10 3 -4 5 12 5 17 0 24 -2 18 -5z
m385 0 c-10 -2 -26 -2 -35 0 -10 3 -2 5 17 5 19 0 27 -2 18 -5z m2520 0 c-10
-2 -26 -2 -35 0 -10 3 -2 5 17 5 19 0 27 -2 18 -5z m385 0 c-7 -2 -21 -2 -30
0 -10 3 -4 5 12 5 17 0 24 -2 18 -5z m-3230 -10 c-7 -2 -21 -2 -30 0 -10 3 -4
5 12 5 17 0 24 -2 18 -5z m405 0 c-10 -2 -28 -2 -40 0 -13 2 -5 4 17 4 22 1
32 -1 23 -4z m2370 0 c-10 -2 -28 -2 -40 0 -13 2 -5 4 17 4 22 1 32 -1 23 -4z
m395 0 c-7 -2 -21 -2 -30 0 -10 3 -4 5 12 5 17 0 24 -2 18 -5z m-3110 -10 c-7
-2 -21 -2 -30 0 -10 3 -4 5 12 5 17 0 24 -2 18 -5z m425 0 c-10 -2 -26 -2 -35
0 -10 3 -2 5 17 5 19 0 27 -2 18 -5z m2200 0 c-10 -2 -26 -2 -35 0 -10 3 -2 5
17 5 19 0 27 -2 18 -5z m425 0 c-7 -2 -21 -2 -30 0 -10 3 -4 5 12 5 17 0 24
-2 18 -5z m-2985 -10 c-10 -2 -26 -2 -35 0 -10 3 -2 5 17 5 19 0 27 -2 18 -5z
m455 0 c-13 -2 -33 -2 -45 0 -13 2 -3 4 22 4 25 0 35 -2 23 -4z m2020 0 c-13
-2 -33 -2 -45 0 -13 2 -3 4 22 4 25 0 35 -2 23 -4z m445 0 c-10 -2 -26 -2 -35
0 -10 3 -2 5 17 5 19 0 27 -2 18 -5z m-2855 -10 c-7 -2 -21 -2 -30 0 -10 3 -4
5 12 5 17 0 24 -2 18 -5z m490 0 c-13 -2 -33 -2 -45 0 -13 2 -3 4 22 4 25 0
35 -2 23 -4z m1820 0 c-13 -2 -33 -2 -45 0 -13 2 -3 4 22 4 25 0 35 -2 23 -4z
m480 0 c-7 -2 -21 -2 -30 0 -10 3 -4 5 12 5 17 0 24 -2 18 -5z m-2715 -10
c-10 -2 -26 -2 -35 0 -10 3 -2 5 17 5 19 0 27 -2 18 -5z m535 0 c-13 -2 -35
-2 -50 0 -16 2 -5 4 22 4 28 0 40 -2 28 -4z m1590 0 c-13 -2 -35 -2 -50 0 -16
2 -5 4 22 4 28 0 40 -2 28 -4z m515 0 c-10 -2 -26 -2 -35 0 -10 3 -2 5 17 5
19 0 27 -2 18 -5z m-2570 -10 c-10 -2 -26 -2 -35 0 -10 3 -2 5 17 5 19 0 27
-2 18 -5z m600 0 c-15 -2 -42 -2 -60 0 -18 2 -6 4 27 4 33 0 48 -2 33 -4z
m1330 0 c-15 -2 -42 -2 -60 0 -18 2 -6 4 27 4 33 0 48 -2 33 -4z m570 0 c-10
-2 -26 -2 -35 0 -10 3 -2 5 17 5 19 0 27 -2 18 -5z m-2410 -10 c-10 -2 -28 -2
-40 0 -13 2 -5 4 17 4 22 1 32 -1 23 -4z m695 0 c-24 -2 -62 -2 -85 0 -24 2
-5 4 42 4 47 0 66 -2 43 -4z m980 0 c-24 -2 -62 -2 -85 0 -24 2 -5 4 42 4 47
0 66 -2 43 -4z m655 0 c-10 -2 -28 -2 -40 0 -13 2 -5 4 17 4 22 1 32 -1 23 -4z
m-2245 -10 c-13 -2 -33 -2 -45 0 -13 2 -3 4 22 4 25 0 35 -2 23 -4z m1235 0
c-98 -2 -258 -2 -355 0 -98 1 -18 2 177 2 195 0 275 -1 178 -2z m925 0 c-13
-2 -33 -2 -45 0 -13 2 -3 4 22 4 25 0 35 -2 23 -4z m-2065 -10 c-10 -2 -28 -2
-40 0 -13 2 -5 4 17 4 22 1 32 -1 23 -4z m1970 0 c-10 -2 -28 -2 -40 0 -13 2
-5 4 17 4 22 1 32 -1 23 -4z m-1865 -10 c-13 -2 -33 -2 -45 0 -13 2 -3 4 22 4
25 0 35 -2 23 -4z m1760 0 c-13 -2 -33 -2 -45 0 -13 2 -3 4 22 4 25 0 35 -2
23 -4z m-1635 -10 c-16 -2 -40 -2 -55 0 -16 2 -3 4 27 4 30 0 43 -2 28 -4z
m1520 0 c-16 -2 -40 -2 -55 0 -16 2 -3 4 27 4 30 0 43 -2 28 -4z m-1375 -10
c-18 -2 -48 -2 -65 0 -18 2 -4 4 32 4 36 0 50 -2 33 -4z m1240 0 c-18 -2 -48
-2 -65 0 -18 2 -4 4 32 4 36 0 50 -2 33 -4z m-1035 -10 c-27 -2 -69 -2 -95 0
-27 2 -5 3 47 3 52 0 74 -1 48 -3z m860 0 c-27 -2 -69 -2 -95 0 -27 2 -5 3 47
3 52 0 74 -1 48 -3z"/>
<path d="M7200 17333 c0 -5 -11 -158 -26 -341 -14 -184 -23 -336 -20 -339 5
-5 483 153 507 168 8 4 -70 98 -221 263 -128 141 -234 256 -236 256 -2 0 -4
-3 -4 -7z"/>
<path d="M13536 16725 c-365 -76 -604 -457 -516 -822 48 -200 173 -357 362
-453 108 -54 205 -74 332 -67 495 24 791 533 572 982 -79 161 -213 279 -385
338 -105 36 -254 45 -365 22z"/>
<path d="M5220 16571 c-42 -13 -110 -50 -227 -124 -95 -59 -111 -73 -103 -87
8 -14 269 -431 274 -437 1 -1 46 26 100 59 188 117 266 212 266 325 0 98 -73
218 -154 257 -35 17 -113 20 -156 7z"/>
<path d="M5743 15975 c-72 -20 -133 -52 -305 -158 l-147 -92 18 -31 c71 -121
274 -434 281 -434 5 0 82 46 172 102 257 161 332 249 315 373 -14 100 -105
215 -190 240 -61 18 -76 18 -144 0z"/>
<path d="M9220 15359 c-1025 -82 -1998 -427 -2826 -1002 -475 -330 -914 -745
-1269 -1202 -303 -390 -604 -912 -785 -1365 -198 -492 -363 -1169 -375 -1531
l-3 -100 27 18 c287 194 519 337 881 539 103 58 104 60 119 109 47 164 148
452 207 590 679 1603 2169 2720 3894 2919 788 92 1606 -16 2345 -309 150 -59
466 -212 610 -294 553 -317 1072 -773 1452 -1277 371 -492 648 -1049 807
-1624 l15 -56 178 -99 c254 -142 536 -312 697 -422 l139 -94 -6 60 c-3 34 -1
61 4 63 12 4 -21 247 -62 458 -98 506 -254 967 -484 1435 -286 581 -629 1059
-1090 1520 -461 461 -939 804 -1520 1090 -677 333 -1347 515 -2119 575 -151
12 -684 11 -836 -1z"/>
<path d="M9540 13639 c-547 -44 -1002 -464 -1101 -1019 -21 -116 -18 -444 4
-550 111 -521 514 -906 1027 -981 118 -17 362 -6 465 20 221 58 394 153 554
305 197 189 321 420 367 690 23 132 24 425 1 538 -51 254 -166 469 -347 648
-255 254 -601 378 -970 349z"/>
<path d="M12134 11249 c-367 -33 -669 -162 -1109 -475 -315 -224 -481 -331
-618 -398 -201 -99 -415 -156 -581 -156 -40 0 -97 -7 -128 -15 -37 -9 -66 -11
-89 -6 -19 5 -81 12 -138 15 -58 4 -150 16 -205 27 -269 54 -464 154 -869 442
-474 337 -658 437 -952 512 -181 46 -309 59 -517 52 -433 -14 -858 -140 -1439
-428 -472 -234 -967 -518 -1279 -736 -169 -117 -181 -130 -77 -83 113 51 314
132 301 122 -5 -5 -61 -43 -124 -84 -116 -76 -299 -208 -288 -208 3 0 50 21
104 46 425 197 900 335 1288 375 151 15 468 7 591 -15 220 -40 416 -105 621
-207 182 -91 326 -184 779 -506 483 -343 782 -466 1195 -492 74 -5 142 -12
151 -15 20 -9 212 195 443 469 276 327 447 525 454 524 9 -1 109 -115 342
-394 300 -358 533 -610 552 -599 5 3 75 10 155 15 434 27 731 158 1323 584
492 354 777 504 1121 589 286 71 656 75 999 11 296 -55 721 -196 1055 -350 44
-20 73 -30 65 -22 -23 23 -235 173 -317 224 -40 25 -73 47 -73 49 0 8 258
-100 343 -143 190 -96 -180 166 -528 374 -364 218 -950 525 -1202 631 -365
153 -727 248 -1033 272 -141 11 -186 11 -316 -1z m-2464 -1169 c-13 -8 -47 -5
-59 6 -2 2 4 13 14 24 l19 21 20 -21 c18 -18 19 -22 6 -30z"/>
<path d="M6812 8569 c-289 -26 -655 -125 -989 -268 -461 -197 -1243 -631
-1633 -907 -150 -106 -168 -121 -105 -91 109 53 356 154 340 139 -5 -5 -59
-42 -120 -82 -105 -70 -285 -199 -285 -205 0 -2 62 26 138 60 371 169 770 291
1132 346 193 29 512 32 675 5 363 -59 647 -177 1015 -421 69 -46 225 -155 347
-242 123 -87 269 -187 325 -223 231 -145 498 -257 700 -295 47 -9 160 -22 250
-30 l163 -14 58 57 c90 88 265 284 477 537 106 127 227 269 269 317 l76 88 48
-53 c27 -28 142 -162 255 -297 225 -268 366 -428 494 -562 l83 -87 167 14
c199 17 212 19 356 56 282 74 497 190 970 527 355 253 465 323 655 419 556
279 1149 303 1883 77 215 -66 349 -117 649 -248 l60 -26 -35 30 c-19 17 -106
79 -192 137 -87 59 -156 108 -154 110 4 5 253 -100 329 -139 33 -16 61 -28 63
-26 5 6 -137 109 -282 206 -288 192 -674 412 -1099 627 -422 213 -664 310
-980 390 -219 56 -352 76 -551 82 -321 11 -584 -46 -879 -192 -148 -73 -283
-159 -579 -370 -298 -212 -454 -305 -630 -375 -141 -56 -358 -99 -500 -100
-34 -1 -77 -7 -97 -14 -24 -8 -44 -10 -60 -3 -13 5 -85 13 -159 18 -301 20
-560 120 -885 343 -66 46 -200 140 -299 209 -372 264 -597 376 -887 441 -191
43 -369 53 -577 35z m2855 -1164 c-15 -8 -27 -8 -39 -1 -15 9 -15 12 -1 33
l16 24 23 -22 24 -22 -23 -12z"/>
<path d="M5305 7383 c-163 -22 -447 -98 -672 -179 l-132 -47 25 -49 c13 -26
21 -48 16 -48 -4 0 -17 -6 -27 -14 -17 -12 -14 -21 55 -152 200 -381 439 -735
709 -1054 1243 -1466 3116 -2208 5022 -1990 1833 210 3450 1291 4351 2910 42
74 92 168 112 208 l36 72 -25 10 -25 10 24 48 25 49 -132 47 c-239 86 -519
159 -692 181 l-50 6 -65 -117 c-492 -885 -1328 -1642 -2265 -2049 -476 -207
-908 -321 -1470 -387 -149 -18 -801 -18 -950 0 -562 66 -994 180 -1470 387
-937 407 -1769 1160 -2265 2049 -69 122 -64 119 -135 109z"/>
<path d="M16631 12604 c-333 -113 -607 -207 -609 -209 -9 -9 143 -441 182
-519 76 -150 170 -249 301 -314 174 -86 394 -71 610 41 149 78 258 215 300
382 21 81 19 222 -5 325 -24 106 -153 493 -166 496 -5 2 -281 -89 -613 -202z"/>
</g>
</svg>
